<svg id="Layer_1" enable-background="new 0 0 512.001 512.001" height="512" viewBox="0 0 512.001 512.001" width="512" xmlns="http://www.w3.org/2000/svg"><g><g fill="#a0c8ff"><path d="m90.001 274.997h40v200h-40z"/><path d="m170.001 322h40v152.997h-40z"/><path d="m330.001 246.001h40v228.996h-40z"/><path d="m410.001 82h40v392.997h-40z"/></g><path d="m90.001 274.997h40v60h-40z" fill="#ffda8f"/><path d="m90.001 334.997h40v40h-40z" fill="#b8ecbc"/><path d="m170.001 322h40v40h-40z" fill="#ffda8f"/><path d="m250.001 395h40v79.997h-40z" fill="#b8ecbc"/><path d="m250.001 395h40v40h-40z" fill="#ffda8f"/><path d="m330.001 246.001h40v60h-40z" fill="#ffda8f"/><path d="m330.001 306.001h40v60h-40z" fill="#b8ecbc"/><path d="m410.001 82h40v60h-40z" fill="#ffda8f"/><path d="m410.001 142h40v40h-40z" fill="#b8ecbc"/><g><circle cx="450.001" cy="270" r="10"/><path d="m510.463 469.672-17-27c-2.941-4.673-9.116-6.078-13.79-3.134-4.674 2.943-6.077 9.117-3.134 13.791l7.349 11.671h-23.887v-150c0-5.52-4.49-10-10-10s-10 4.48-10 10v150h-20v-273h20v33c0 5.51 4.49 10 10 10s10-4.49 10-10c0-.01 0-.01 0-.02 0 0-.017-143.637-.05-143.963-.463-4.738-4.23-8.505-8.968-8.968-.326-.033-41.639-.033-41.965 0-4.738.462-8.505 4.229-8.968 8.967-.033.326-.05 383.983-.05 383.983h-20v-218.998c0-5.523-4.478-10-10-10h-40c-5.522 0-10 4.477-10 10v218.999h-20v-70c0-5.523-4.478-10-10-10h-40c-5.522 0-10 4.477-10 10v70h-20v-143c0-5.523-4.478-10-10-10h-40c-5.522 0-10 4.477-10 10v143h-20v-190.003c0-5.523-4.478-10-10-10h-40c-5.522 0-10 4.477-10 10v190.003h-33v-436.887l11.672 7.349c1.655 1.042 3.497 1.539 5.318 1.539 3.322 0 6.571-1.655 8.472-4.673 2.943-4.674 1.54-10.848-3.134-13.791l-27-17c-3.256-2.05-7.4-2.05-10.656 0l-27 17c-4.674 2.943-6.077 9.117-3.134 13.791 2.941 4.673 9.116 6.078 13.79 3.134l11.672-7.349v43.887h-11.75c-5.522 0-10 4.477-10 10s4.478 10 10 10h11.75v60h-11.75c-5.522 0-10 4.477-10 10s4.478 10 10 10h11.75v60h-11.75c-5.522 0-10 4.477-10 10s4.478 10 10 10h11.75v60h-11.75c-5.522 0-10 4.477-10 10s4.478 10 10 10h11.75v60h-11.75c-5.522 0-10 4.477-10 10s4.478 10 10 10h11.75v53h-17c-5.522 0-10 4.477-10 10s4.478 10 10 10h17v17c0 5.523 4.478 10 10 10s10-4.477 10-10v-17h53v10.75c0 5.523 4.478 10 10 10s10-4.477 10-10v-10.75h60v10.75c0 5.523 4.478 10 10 10s10-4.477 10-10v-10.75h60v10.75c0 5.523 4.478 10 10 10s10-4.477 10-10v-10.75h60v10.75c0 5.523 4.478 10 10 10s10-4.477 10-10v-10.75h60v10.75c0 5.523 4.478 10 10 10s10-4.477 10-10v-10.75h43.887l-7.349 11.672c-2.943 4.674-1.54 10.848 3.134 13.791 1.655 1.042 3.497 1.539 5.318 1.539 3.322 0 6.571-1.655 8.472-4.673l17-27c2.052-3.257 2.052-7.401.001-10.657zm-90.462-377.672h20v40h-20zm0 60h20v20h-20zm-300 312.997h-20v-80h20zm0-100h-20v-20h20zm0-40h-20v-40h20zm80 140h-20v-92.997h20zm0-112.997h-20v-20h20zm60 93h20v19.997h-20zm0-40h20v20h-20zm100 59.997h-20v-88.996h20zm0-108.996h-20v-40h20zm0-60h-20v-40h20z"/></g></g></svg>