<svg id="Layer_1" enable-background="new 0 0 512 512" height="512" viewBox="0 0 512 512" width="512" xmlns="http://www.w3.org/2000/svg"><g><path d="m10 255.594c0 103.26 63.41 191.676 153.35 228.336l46.35-147.583c-27.88-16.076-46.65-46.216-46.65-80.753 0-44.543 31.22-81.785 72.95-90.93v-154.664c-126.51 10.187-226 116.251-226 245.594z" fill="#ff7b79"/><path d="m276 10v154.665c2.8.601 5.55 1.342 8.25 2.214l77.45-133.84c-26.32-12.572-55.23-20.595-85.7-23.039z" fill="#a0c8ff"/><path d="m486.38 169.002-139.73 65.958c1.51 6.641 2.3 13.542 2.3 20.634 0 51.425-41.61 93.103-92.95 93.103-2.74 0-5.46-.12-8.14-.361l-46.35 147.594c17.53 3.977 35.76 6.07 54.49 6.07 135.86 0 246-110.322 246-246.406 0-30.47-5.52-59.658-15.62-86.592z" fill="#ffda8f"/><path d="m487.67 124.073c-20.264-35.23-48.11-65.52-81.312-88.639l-87.518 151.557c3.9 3.586 7.5 7.512 10.75 11.719z" fill="#b8ecbc"/><g><path d="m214.695 327.684c-25.688-14.812-41.646-42.435-41.646-72.09 0-38.763 27.375-72.896 65.091-81.162 4.589-1.005 7.859-5.07 7.859-9.768v-154.664c0-2.792-1.167-5.456-3.219-7.349-2.052-1.894-4.796-2.84-7.584-2.619-63.921 5.147-123.221 34.016-166.976 81.289-43.992 47.529-68.22 109.42-68.22 174.273 0 51.995 15.455 102.063 44.695 144.791 28.547 41.716 68.272 73.808 114.881 92.806 1.211.494 2.494.74 3.774.74 1.456 0 2.911-.318 4.257-.951 2.53-1.19 4.446-3.385 5.284-6.053l46.35-147.583c1.404-4.472-.486-9.319-4.546-11.66zm-57.556 142.65c-83.663-38.604-137.139-121.738-137.139-214.74 0-118.687 89.642-219.644 206-234.503v135.863c-19.447 5.937-36.941 17.669-49.884 33.594-14.874 18.301-23.066 41.402-23.066 65.046 0 34.067 16.982 65.976 44.805 85.097z"/><path d="m273.901 174.442c2.43.521 4.878 1.179 7.277 1.953 1.015.328 2.049.484 3.071.484 3.493 0 6.831-1.838 8.656-4.992l77.45-133.84c1.397-2.415 1.722-5.303.897-7.967-.825-2.665-2.726-4.863-5.243-6.065-28.097-13.419-58.111-21.488-89.21-23.982-2.778-.222-5.531.727-7.582 2.62-2.05 1.892-3.217 4.556-3.217 7.347v154.665c0 4.713 3.292 8.787 7.901 9.777zm12.099-153.359c21.219 2.684 41.828 8.224 61.499 16.53l-61.499 106.275z"/><path d="m495.74 165.49c-.98-2.61-3.02-4.71-5.6-5.75-2.55-1.04-5.54-.95-8.03.22l-139.73 65.96c-2.05.96-3.72 2.62-4.72 4.67-.99 2.04-1.26 4.38-.76 6.59 1.36 5.97 2.05 12.17 2.05 18.41 0 22.2-8.64 43.07-24.3 58.78-15.68 15.68-36.51 24.32-58.65 24.33-2.42 0-7.85-.36-8.15-.36-4.39 0-8.22 2.81-9.53 7l-46.35 147.59c-.84 2.66-.52 5.57.87 7.98 1.39 2.42 3.74 4.15 6.46 4.77 18.47 4.19 37.55 6.32 56.7 6.32l.02-.05v.05c19.57 0 39.08-2.23 57.99-6.61 18.39-4.27 36.33-10.61 53.33-18.85 4.96-2.4 7.05-8.4 4.64-13.36-1.66-3.43-5.2-5.64-9-5.64-1.52 0-2.98.34-4.36 1-32.13 15.57-66.66 23.46-102.62 23.46-13.99 0-27.99-1.23-41.62-3.67l40.71-129.64c.3.01.61.01.91.01 13.9 0 27.39-2.73 40.08-8.11 12.26-5.19 23.27-12.63 32.72-22.1 9.46-9.46 16.88-20.49 22.06-32.77 5.37-12.71 8.09-26.21 8.09-40.13 0-4.98-.36-9.99-1.07-14.87l122.72-57.93c7.56 23.42 11.4 47.92 11.4 72.8-.01 60.5-22.81 118.06-64.2 162.09-1.83 1.94-2.8 4.49-2.71 7.16.08 2.67 1.19 5.14 3.14 6.98 1.86 1.75 4.3 2.71 6.85 2.71 2.79 0 5.38-1.12 7.29-3.15 0 0 0-.01.01-.01 10.79-11.47 20.57-24 29.08-37.25 8.59-13.38 15.96-27.62 21.91-42.33 6.06-14.99 10.71-30.63 13.82-46.49 3.19-16.27 4.81-32.99 4.81-49.71 0-31.02-5.47-61.33-16.26-90.1z"/><circle cx="401.455" cy="454.33" r="10"/><path d="m312.072 194.353c3.469 3.189 6.7 6.712 9.605 10.471 1.944 2.516 4.896 3.887 7.917 3.887 1.439 0 2.896-.311 4.265-.958l158.081-74.637c2.525-1.192 4.437-3.386 5.272-6.051s.519-5.558-.874-7.978c-20.829-36.213-49.968-67.978-84.266-91.86-2.296-1.599-5.157-2.163-7.891-1.554-2.732.609-5.083 2.335-6.483 4.759l-87.518 151.559c-2.342 4.055-1.555 9.192 1.892 12.362zm97.389-144.295c25.188 19.154 47.025 42.962 63.929 69.699l-141.093 66.617c-.315-.349-.633-.695-.953-1.039z"/></g></g></svg>