<svg id="Layer_1" enable-background="new 0 0 512.001 512.001" height="512" viewBox="0 0 512.001 512.001" width="512" xmlns="http://www.w3.org/2000/svg"><g><path d="m430.979 475h-393.98c71.76 0 139.04-22.23 196.99-61.08 57.95 38.85 125.23 61.08 196.99 61.08z" fill="#ffda8f"/><circle cx="234.28" cy="414.333" fill="#ff7b79" r="20"/><g><path d="m510.464 469.672-17-27c-2.943-4.675-9.118-6.077-13.791-3.134-4.674 2.943-6.077 9.117-3.134 13.791l7.349 11.671h-52.909c-58.908-.006-115.815-15.377-167.347-44.452.424-2.022.647-4.103.647-6.219 0-3.108-.475-6.144-1.382-9.029 16.447-12.828 32.137-27.076 46.752-42.531 73.76-77.95 119.71-183.91 129.4-298.36.46-5.49-3.63-10.34-9.13-10.81-2.78-.23-5.53.71-7.59 2.59-1.86 1.7-3 4.02-3.21 6.54-9.3 109.97-53.33 211.64-123.99 286.29-13.984 14.768-28.786 28.218-44.267 40.306-4.87-3.243-10.589-4.989-16.583-4.997-6.139.008-11.999 1.849-16.952 5.254-20.369-15.927-39.58-34.235-57.358-54.824-70.892-82.118-110.773-190.671-112.877-306.587l11.581 7.292c1.655 1.042 3.498 1.539 5.319 1.539 3.321 0 6.571-1.655 8.472-4.673 2.942-4.674 1.54-10.848-3.134-13.791l-27-17c-3.256-2.05-7.4-2.05-10.656 0l-27 17c-4.674 2.943-6.077 9.117-3.134 13.791s9.117 6.076 13.791 3.134l11.672-7.349v43.886h-11.75c-5.523 0-10 4.477-10 10s4.477 10 10 10h11.75v60h-11.75c-5.523 0-10 4.477-10 10s4.477 10 10 10h11.75v60h-11.75c-5.523 0-10 4.477-10 10s4.477 10 10 10h11.75v60h-11.75c-5.523 0-10 4.477-10 10s4.477 10 10 10h11.75v60h-11.75c-5.523 0-10 4.477-10 10s4.477 10 10 10h11.75v53h-17c-5.523 0-10 4.477-10 10s4.477 10 10 10h17v17c0 5.523 4.477 10 10 10s10-4.477 10-10v-17h53v11.75c0 5.523 4.477 10 10 10s10-4.477 10-10v-11.75h60v11.75c0 5.523 4.477 10 10 10s10-4.477 10-10v-11.75h60v11.75c0 5.523 4.477 10 10 10s10-4.477 10-10v-11.75h60v11.75c0 5.523 4.477 10 10 10s10-4.477 10-10v-11.75h60v11.75c0 5.523 4.477 10 10 10s10-4.477 10-10v-11.75h43.887l-7.349 11.672c-2.942 4.674-1.54 10.848 3.134 13.791 1.655 1.042 3.498 1.539 5.319 1.539 3.321 0 6.571-1.655 8.472-4.673l17-27c2.048-3.257 2.048-7.401-.002-10.657zm-276.185-65.343c5.5.01 9.99 4.5 10 10-.01 5.51-4.5 9.99-10 10-5.5-.01-9.99-4.49-10-10 .01-5.5 4.5-9.989 10-10zm-187.278 60.513v-301.031c3.433 12.121 7.285 24.08 11.567 35.808 10.08 27.6 22.55 54.23 37.08 79.15 14.4 24.7 30.94 47.93 49.18 69.06 18.23 21.14 38.31 40.34 59.7 57.08.335.262.677.513 1.013.774-.831 2.77-1.263 5.675-1.263 8.646 0 1.966.191 3.902.558 5.789-48.89 27.656-102.595 43.056-157.835 44.724zm107.341.158c10.694-3.74 21.252-7.985 31.606-12.73 9.846-4.511 19.559-9.5 29.098-14.917 5.384 4.512 12.121 6.976 19.232 6.976 7.014 0 13.654-2.386 18.995-6.772 6.571 3.724 13.222 7.248 19.945 10.542 13.167 6.457 26.67 12.098 40.392 16.9h-159.268z"/><path d="m430.979 28.63c5.51 0 9.99-4.48 10-9.98 0-.01 0-.01 0-.02 0-5.51-4.49-10-10-10-5.52 0-10 4.49-10 10s4.48 10 10 10z"/></g></g></svg>