<svg id="Layer_1" enable-background="new 0 0 512 512" height="512" viewBox="0 0 512 512" width="512" xmlns="http://www.w3.org/2000/svg"><g><path d="m261.6 269.167h-200.06c0-113.856 44.78-206.154 100.03-206.154s100.03 92.298 100.03 206.154z" fill="#ff7b79"/><path d="m436.17 269.167c0 99.317-39.08 179.82-87.28 179.82-48.21 0-87.29-80.503-87.29-179.82z" fill="#a0c8ff"/><g><ellipse cx="245.646" cy="157.434" rx="10" ry="10.013"/><path d="m510.449 263.811-17.25-27.285c-2.954-4.673-9.132-6.063-13.798-3.105-4.667 2.957-6.055 9.143-3.101 13.816l7.534 11.917h-37.664v-39.901c0-5.527-4.49-10.013-10-10.013s-10 4.486-10 10.013v39.901h-154.693c-.46-20.385-2.318-40.383-5.568-59.586-.82-4.836-4.96-8.34-9.85-8.34-.56 0-1.13.05-1.68.14-2.64.451-4.94 1.893-6.49 4.076-1.54 2.182-2.15 4.836-1.7 7.47 3.061 18.108 4.822 36.983 5.279 56.241h-79.898v-184.858c6.8 1.73 13.464 5.239 20.159 10.614 10.03 8.07 19.69 20.416 27.92 35.706 1.75 3.244 5.12 5.257 8.81 5.257 1.64 0 3.28-.42 4.74-1.212 2.35-1.272 4.06-3.374 4.83-5.938.76-2.563.48-5.277-.79-7.63-9.63-17.833-20.72-31.891-32.96-41.773-6.43-5.207-13.24-9.232-20.24-11.975-7.329-2.884-14.869-4.346-22.399-4.346h-.07-.06c-8.08 0-16.16 1.682-24 4.986-7.45 3.144-14.66 7.75-21.44 13.678-9.78 8.561-18.78 19.785-26.75 33.343-7.73 13.157-14.53 28.557-20.2 45.779-10.581 32.312-16.561 69.587-17.45 108.368h-41.67c-5.523 0-10 4.483-10 10.013s4.477 10.013 10 10.013h41.54v40.052c0 5.517 4.48 10.013 10 10.013 5.51 0 10-4.496 10-10.013v-40.052h180.198c1.209 45.762 10.489 88.592 26.432 121.516 8.62 17.722 18.77 31.751 30.18 41.713 12.4 10.854 26.39 16.591 40.47 16.591h.14c14.07 0 28.06-5.737 40.47-16.592 8.64-7.569 16.58-17.462 23.6-29.397 6.78-11.535 12.75-25.052 17.73-40.182 9.16-27.962 14.383-60.154 15.262-93.65h37.812l-7.534 11.917c-2.954 4.672-1.566 10.858 3.101 13.816 1.66 1.052 3.51 1.554 5.339 1.554 3.313 0 6.555-1.648 8.458-4.659l17.25-27.285c2.069-3.27 2.069-7.441.001-10.711zm-438.79-4.657c1.189-49.272 11.311-96.686 28.171-131.378 8.47-17.482 18.63-31.661 29.37-41.012 7.297-6.324 14.788-10.482 22.371-12.437v184.827zm214.351 107.428c-8.526-25.984-13.401-56.017-14.259-87.402h67.135v158.284c-5.862-1.782-11.618-5.141-17.406-10.154-14.07-12.176-26.67-33.744-35.47-60.728zm115.6 25.362c-7.32 15.099-16.07 27.325-25.32 35.366-5.789 5.013-11.545 8.373-17.404 10.154v-158.285h67.141c-1.183 42.342-9.926 82.976-24.417 112.765z"/></g></g></svg>