<svg id="Layer_1" enable-background="new 0 0 512 512" height="512" viewBox="0 0 512 512" width="512" xmlns="http://www.w3.org/2000/svg"><g><path d="m343.63 365.49c-11.36 24.33-28.16 45.61-48.83 62.28-19.44-21.21-31.3-49.48-31.3-80.52 0-.76.01-1.52.03-2.28 23.19 13.07 49.96 20.53 78.47 20.53.54 0 1.09 0 1.63-.01z" fill="#a0c8ff"/><path d="m349.83 232.6c-49.15 14.09-85.31 58.93-86.3 112.37-48.67-27.44-81.53-79.62-81.53-139.47 0-32.29 9.57-62.35 26.03-87.49 65.82 8.64 120.11 53.87 141.8 114.59z" fill="#b8ecbc"/><path d="m360 291.5c0 26.44-5.87 51.52-16.37 73.99-.54.01-1.09.01-1.63.01-28.51 0-55.28-7.46-78.47-20.53.99-53.44 37.15-98.28 86.3-112.37 6.59 18.4 10.17 38.23 10.17 58.9z" fill="#ff7b79"/><path d="m482.56 281.99c-26.88 49.31-78.96 82.9-138.93 83.5 10.5-22.47 16.37-47.55 16.37-73.99 0-20.67-3.58-40.5-10.17-58.9 10.46-2.99 21.5-4.6 32.92-4.6 41.77 0 78.52 21.48 99.81 53.99z" fill="#ffda8f"/><g><circle cx="479.208" cy="417.38" r="10"/><circle cx="317" cy="307.5" r="10"/><path d="m494.04 281.489c11.483-22.882 17.96-48.692 17.96-75.989 0-93.738-76.262-170-170-170-57.228 0-107.94 28.427-138.764 71.899-6.001-.59-12.083-.899-18.236-.899-102.009 0-185 82.991-185 185s82.991 185 185 185c40.638 0 78.25-13.182 108.807-35.479 11.309 10.74 24.288 19.251 38.633 25.319 15.93 6.74 32.86 10.16 50.31 10.16h.02c24.6 0 48.52-6.94 69.18-20.07 4.66-2.96 6.04-9.149 3.08-13.8-1.84-2.91-5-4.64-8.45-4.64-1.89 0-3.74.529-5.35 1.56-17.46 11.08-37.69 16.95-58.48 16.95-27.345 0-53.161-9.992-73.296-28.237 16.47-15.001 30.227-32.929 40.445-52.952 54.802-2.52 102.91-31.108 132.193-73.625 6.484 14.113 9.908 29.575 9.908 45.564 0 9.21-1.15 18.36-3.41 27.2-.66 2.58-.28 5.27 1.08 7.57s3.54 3.93 6.13 4.59c.81.21 1.65.32 2.49.32 4.56 0 8.54-3.09 9.67-7.52 2.68-10.46 4.04-21.28 4.04-32.16 0-17.45-3.42-34.38-10.16-50.31-2.262-5.347-4.871-10.499-7.8-15.451zm-152.04-225.989c82.71 0 150 67.29 150 150 0 20.29-4.058 39.647-11.391 57.315-2.064-2.386-4.221-4.706-6.47-6.955-11.87-11.87-25.69-21.19-41.08-27.7-15.929-6.74-32.859-10.16-50.309-10.16-9.101 0-18.059.939-26.809 2.786-22.788-54.882-71.26-96.504-130.338-109.786 27.526-33.84 69.477-55.5 116.397-55.5zm8 236c0 22.649-4.59 44.246-12.884 63.912-22.733-.731-44.207-6.536-63.315-16.331 1.924-26.094 13.006-50.371 31.698-69.081 10.967-10.962 23.854-19.309 37.9-24.726 4.29 14.674 6.601 30.184 6.601 46.226zm-17.56-63.34c-15.39 6.51-29.21 15.83-41.08 27.7s-21.19 25.69-27.7 41.08c-4.179 9.876-7.078 20.138-8.681 30.67-38.098-27.229-62.979-71.817-62.979-122.11 0-27.966 7.701-54.164 21.082-76.599 55.64 9.581 101.835 47.116 123.555 97.578-1.405.538-2.806 1.092-4.197 1.681zm-312.44 63.34c0-90.981 74.019-165 165-165 2.157 0 4.301.055 6.437.137-12.403 23.585-19.437 50.416-19.437 78.863 0 61.359 32.679 115.226 81.544 145.121.413 16.259 3.811 32.037 10.116 46.938 4.335 10.249 9.924 19.797 16.675 28.541-26.94 19.137-59.846 30.4-95.334 30.4-90.982 0-165.001-74.019-165.001-165zm275.917 122.055c-11.661-15.215-19.032-33.073-21.494-52.08 16.46 7.159 34.262 11.784 52.918 13.385-8.489 14.441-19.104 27.489-31.424 38.695zm63.017-59.016c7.156-19.684 11.066-40.913 11.066-63.039 0-17.923-2.572-35.255-7.349-51.656 6.563-1.215 13.282-1.844 20.099-1.844 29.17 0 56.6 11.37 77.25 32 3.91 3.914 7.486 8.073 10.716 12.439-23.486 39.144-64.313 66.741-111.782 72.1z"/></g></g></svg>