<svg id="Layer_1" enable-background="new 0 0 512.001 512.001" height="512" viewBox="0 0 512.001 512.001" width="512" xmlns="http://www.w3.org/2000/svg"><g><path d="m117.001 162.003h60v312.997h-60z" fill="#b8ecbc"/><path d="m77.001 235.003h60v239.997h-60z" fill="#ffda8f"/><path d="m217.001 75.003h60v399.997h-60z" fill="#b8ecbc"/><path d="m177.001 315.003h60v159.997h-60z" fill="#ffda8f"/><path d="m317.001 10h60v465h-60z" fill="#b8ecbc"/><path d="m277.001 235.003h60v239.997h-60z" fill="#ffda8f"/><g><path d="m510.463 469.672-17-27c-2.941-4.672-9.116-6.077-13.79-3.134-4.674 2.942-6.077 9.116-3.134 13.79l7.349 11.672h-96.887v-70c0-5.51-4.49-10-10-10s-10 4.49-10 10v70h-20v-229.997c0-5.523-4.478-10-10-10h-10v-205.003h40v285c0 5.51 4.49 10 10 10 5.52 0 10-4.49 10-10v-295c0-2.63-1.07-5.21-2.931-7.07-1.859-1.86-4.439-2.93-7.069-2.93h-60c-2.63 0-5.21 1.07-7.07 2.93s-2.93 4.44-2.93 7.07v215.003h-20v-150c0-5.523-4.478-10-10-10h-60c-5.522 0-10 4.477-10 10v230h-20v-143c0-5.523-4.478-10-10-10h-60c-5.522 0-10 4.477-10 10v63h-30c-5.522 0-10 4.477-10 10v229.997h-20v-436.887l11.672 7.349c1.655 1.042 3.497 1.539 5.318 1.539 3.322 0 6.571-1.655 8.472-4.673 2.943-4.674 1.54-10.848-3.134-13.791l-27-17c-3.256-2.05-7.4-2.05-10.656 0l-27 17c-4.674 2.943-6.077 9.117-3.134 13.791 2.941 4.673 9.116 6.078 13.79 3.134l11.672-7.349v43.887h-11.75c-5.522 0-10 4.477-10 10s4.478 10 10 10h11.75v60h-11.75c-5.522 0-10 4.477-10 10s4.478 10 10 10h11.75v60h-11.75c-5.522 0-10 4.477-10 10s4.478 10 10 10h11.75v60h-11.75c-5.522 0-10 4.477-10 10s4.478 10 10 10h11.75v60h-11.75c-5.522 0-10 4.478-10 10s4.478 10 10 10h11.75v53h-17c-5.522 0-10 4.478-10 10s4.478 10 10 10h17v17c0 5.522 4.478 10 10 10s10-4.478 10-10v-17h53v11.75c0 5.522 4.478 10 10 10s10-4.478 10-10v-11.75h77v11.75c0 5.522 4.478 10 10 10s10-4.478 10-10v-11.75h80v11.75c0 5.522 4.478 10 10 10s10-4.478 10-10v-11.75h80v11.75c0 5.522 4.478 10 10 10s10-4.478 10-10v-11.75h66.887l-7.349 11.672c-2.943 4.674-1.54 10.848 3.134 13.79 1.655 1.043 3.497 1.539 5.318 1.539 3.322 0 6.571-1.654 8.472-4.673l17-27c2.051-3.256 2.051-7.4 0-10.656zm-223.462-224.669h40v219.997h-40zm-60-160h40v379.997h-20v-149.997c0-5.523-4.478-10-10-10h-10zm-40 240h40v139.997h-40zm-60-153h40v292.997h-20v-229.997c0-5.523-4.478-10-10-10h-10zm-40 73h40v219.997h-40z"/><circle cx="377.001" cy="350" r="10"/></g></g></svg>