<svg id="Layer_1" enable-background="new 0 0 512.001 512.001" height="512" viewBox="0 0 512.001 512.001" width="512" xmlns="http://www.w3.org/2000/svg"><g><circle cx="242.251" cy="270.084" fill="#ffda8f" r="165"/><circle cx="401.668" cy="189" fill="#a0c8ff" r="73.5"/><circle cx="463.168" cy="141" fill="#ff7b79" r="27.75"/><circle cx="288.239" cy="160.321" fill="#b8ecbc" r="100.321"/><circle cx="209.668" cy="91.5" fill="#a0c8ff" r="49.5"/><circle cx="137.001" cy="375.356" fill="#ff7b79" r="49.5"/><g><circle cx="347.583" cy="397.1" r="10"/><path d="m81.001 338.2c1.211 2.86 2.519 5.683 3.886 8.48-4.701 8.51-7.386 18.283-7.386 28.675 0 32.809 26.691 59.5 59.5 59.5 10.39 0 20.162-2.684 28.671-7.384 2.787 1.364 5.608 2.652 8.458 3.858 21.58 9.12 44.49 13.75 68.12 13.75h.02c12.46 0 24.91-1.32 37-3.92 11.78-2.54 23.32-6.32 34.32-11.23 5.03-2.25 7.3-8.18 5.05-13.21-1.609-3.6-5.2-5.93-9.14-5.93-1.41 0-2.78.3-4.07.88-19.92 8.899-41.18 13.41-63.18 13.41-20.74 0-40.851-4.066-59.448-11.79 8.55-10.305 13.698-23.529 13.698-37.935 0-32.809-26.691-59.5-59.5-59.5-14.409 0-27.636 5.151-37.942 13.705-7.734-18.608-11.808-38.729-11.808-59.48 0-41.391 16.13-80.311 45.399-109.601 10.632-10.629 22.541-19.517 35.374-26.536 3.402 3.339 7.201 6.271 11.321 8.722-.929 5.751-1.427 11.645-1.427 17.655 0 60.831 49.489 110.32 110.32 110.32 22.042 0 42.592-6.502 59.841-17.682 13.446 11.291 30.481 18.434 49.129 19.421-.45 30.93-9.933 60.599-27.517 85.96-1.529 2.2-2.109 4.85-1.63 7.479.471 2.631 1.94 4.921 4.141 6.44 1.68 1.17 3.649 1.79 5.689 1.79 3.28 0 6.36-1.61 8.23-4.3 9.939-14.32 17.649-29.99 22.92-46.561 5.356-16.833 8.107-34.371 8.201-52.168 38.622-7.319 67.926-41.303 67.926-82.021 0-5.564-.553-11.001-1.6-16.262 10.427-6.725 17.35-18.435 17.35-31.738 0-20.815-16.935-37.75-37.75-37.75-9.992 0-19.083 3.91-25.843 10.27-10.82-5.135-22.905-8.02-35.657-8.02-5.742 0-11.345.596-16.762 1.71-18.794-34.071-55.077-57.207-96.666-57.207-11.076 0-21.772 1.65-31.866 4.703-10.905-13.812-27.781-22.703-46.705-22.703-32.809 0-59.5 26.691-59.5 59.5 0 9.383 2.191 18.261 6.076 26.162-4.041 2.284-8 4.713-11.843 7.308-9.26 6.26-17.97 13.45-25.89 21.37s-15.11 16.63-21.37 25.9c-6.32 9.35-11.75 19.359-16.14 29.72-9.12 21.58-13.75 44.5-13.75 68.12 0 23.63 4.63 46.55 13.75 68.12zm399.917-197.2c0 9.787-7.963 17.75-17.75 17.75s-17.75-7.963-17.75-17.75 7.963-17.75 17.75-17.75 17.75 7.963 17.75 17.75zm-79.25-15.5c8.944 0 17.46 1.861 25.187 5.213-.929 3.273-1.437 6.721-1.437 10.287 0 20.815 16.935 37.75 37.75 37.75.385 0 .765-.018 1.147-.029.551 3.348.853 6.778.853 10.279 0 35.014-28.486 63.5-63.5 63.5-13.998 0-26.944-4.562-37.451-12.266 21.143-20.111 34.342-48.5 34.342-79.914 0-11.945-1.916-23.45-5.444-34.231 2.798-.382 5.652-.589 8.553-.589zm-113.429-55.5c49.803 0 90.32 40.518 90.32 90.32s-40.518 90.32-90.32 90.32-90.32-40.518-90.32-90.32c0-3.512.212-6.974.604-10.383 3.613.688 7.336 1.062 11.146 1.062 32.809 0 59.5-26.691 59.5-59.5 0-6.549-1.079-12.847-3.042-18.744 7.079-1.788 14.483-2.755 22.112-2.755zm-78.571-18c21.78 0 39.5 17.72 39.5 39.5s-17.72 39.5-39.5 39.5-39.5-17.72-39.5-39.5 17.72-39.5 39.5-39.5zm-72.667 283.856c21.78 0 39.5 17.72 39.5 39.5s-17.72 39.5-39.5 39.5-39.5-17.72-39.5-39.5 17.72-39.5 39.5-39.5z"/><path d="m510.463 469.672-17-27c-2.941-4.672-9.116-6.077-13.79-3.134-4.674 2.942-6.077 9.116-3.134 13.79l7.349 11.672h-436.887v-436.887l11.672 7.349c1.655 1.043 3.497 1.54 5.318 1.539 3.322 0 6.571-1.654 8.472-4.673 2.943-4.674 1.54-10.848-3.134-13.79l-27-17c-3.256-2.051-7.4-2.051-10.656 0l-27 17c-4.674 2.942-6.077 9.116-3.134 13.79 2.941 4.673 9.116 6.078 13.79 3.134l11.672-7.349v43.887h-11.75c-5.522 0-10 4.478-10 10s4.478 10 10 10h11.75v58.6h-11.75c-5.522 0-10 4.478-10 10s4.478 10 10 10h11.75v58.6h-11.75c-5.522 0-10 4.478-10 10s4.478 10 10 10h11.75v58.6h-11.75c-5.522 0-10 4.478-10 10s4.478 10 10 10h11.75v58.601h-11.75c-5.522 0-10 4.478-10 10s4.478 10 10 10h11.75v58.599h-17c-5.522 0-10 4.478-10 10s4.478 10 10 10h17v17c0 5.522 4.478 10 10 10s10-4.478 10-10v-17h58.6v12c0 5.522 4.478 10 10 10s10-4.478 10-10v-12h58.601v12c0 5.522 4.478 10 10 10s10-4.478 10-10v-12h58.6v12c0 5.522 4.478 10 10 10s10-4.478 10-10v-12h58.601v12c0 5.522 4.478 10 10 10s10-4.478 10-10v-12h58.6v12c0 5.522 4.478 10 10 10s10-4.478 10-10v-12h43.887l-7.349 11.672c-2.943 4.674-1.54 10.848 3.134 13.79 1.655 1.043 3.497 1.539 5.318 1.539 3.322 0 6.571-1.654 8.472-4.673l17-27c2.049-3.256 2.049-7.4-.002-10.656z"/></g></g></svg>