<svg id="Layer_1" enable-background="new 0 0 512.001 512.001" height="512" viewBox="0 0 512.001 512.001" width="512" xmlns="http://www.w3.org/2000/svg"><g><path d="m144.37 474.997h-107.369l53.685-200z" fill="#ffda8f"/><path d="m211.475 474.997h-107.368l53.684-250z" fill="#b8ecbc"/><path d="m286.633 474.997h-107.369l53.685-390z" fill="#a0c8ff"/><path d="m364.475 474.997h-107.368l53.684-200z" fill="#ffda8f"/><path d="m337.633 474.997h107.368l-53.684-270z" fill="#b8ecbc"/><g><path d="m510.464 469.672-17-27c-2.943-4.674-9.118-6.077-13.791-3.134-4.674 2.942-6.077 9.116-3.134 13.79l7.349 11.672h-30.678l-12.569-63.19c-.92-4.66-5.04-8.05-9.79-8.05-.66 0-1.32.06-1.96.19-2.62.52-4.88 2.029-6.37 4.25-1.48 2.22-2.01 4.89-1.49 7.51l11.78 59.29h-82.99l41.5-208.72 12.16 61.159c.92 4.66 5.04 8.051 9.79 8.051.66 0 1.32-.07 1.96-.2 2.62-.521 4.88-2.021 6.37-4.25 1.48-2.221 2.01-4.88 1.49-7.5l-21.97-110.49c-.92-4.67-5.05-8.05-9.8-8.05-4.76 0-8.89 3.38-9.81 8.05l-33.908 170.518-27.154-101.163c-1.173-4.369-5.134-7.407-9.658-7.407s-8.485 3.038-9.658 7.407l-21.346 79.525-36.932-268.296c-.682-4.949-4.911-8.637-9.907-8.637s-9.225 3.688-9.907 8.637l-33.35 242.286-22.123-103.022c-.99-4.608-5.063-7.9-9.777-7.9s-8.788 3.292-9.777 7.9l-27.093 126.167-20.577-76.66c-1.173-4.369-5.134-7.407-9.658-7.407s-8.485 3.038-9.658 7.407l-34.027 126.763v-371.054l11.672 7.349c1.655 1.043 3.498 1.54 5.319 1.539 3.321 0 6.571-1.654 8.472-4.673 2.942-4.674 1.54-10.848-3.134-13.79l-27-17c-3.256-2.051-7.4-2.051-10.656 0l-27 17c-4.674 2.942-6.077 9.116-3.134 13.79s9.118 6.076 13.791 3.134l11.672-7.349v43.886h-11.75c-5.523 0-10 4.478-10 10s4.477 10 10 10h11.75v60h-11.75c-5.523 0-10 4.478-10 10s4.477 10 10 10h11.75v60h-11.75c-5.523 0-10 4.478-10 10s4.477 10 10 10h11.75v60h-11.75c-5.523 0-10 4.478-10 10s4.477 10 10 10h11.75v60h-11.75c-5.523 0-10 4.478-10 10s4.477 10 10 10h11.75v53h-17c-5.523 0-10 4.478-10 10s4.477 10 10 10h17v17c0 5.522 4.477 10 10 10s10-4.478 10-10v-17h53v11.75c0 5.522 4.477 10 10 10s10-4.478 10-10v-11.75h60v11.75c0 5.522 4.477 10 10 10s10-4.478 10-10v-11.75h60v11.75c0 5.522 4.477 10 10 10s10-4.478 10-10v-11.75h60v11.75c0 5.522 4.477 10 10 10s10-4.478 10-10v-11.75h60v11.75c0 5.522 4.477 10 10 10s10-4.478 10-10v-11.75h43.887l-7.349 11.672c-2.942 4.674-1.54 10.848 3.134 13.79 1.655 1.043 3.498 1.539 5.319 1.539 3.321 0 6.571-1.654 8.472-4.673l17-27c2.048-3.256 2.048-7.4-.002-10.656zm-414.439-4.672h-1c0-.001 0-.002.001-.003h-44.987l40.646-151.427 21.032 78.354zm74.522-.003h-54.064l41.309-192.37 23.908 111.343zm78.89 0h-58.702l42.213-306.668 33.493 243.317zm79.985 0h-59.278l40.646-151.427 28 104.314z"/><circle cx="422.06" cy="359.63" r="10"/></g></g></svg>