<svg id="Layer_1" enable-background="new 0 0 512.001 512.001" height="512" viewBox="0 0 512.001 512.001" width="512" xmlns="http://www.w3.org/2000/svg"><g><path d="m37.001 395.27h157.2v79.73h-157.2z" fill="#ff7b79"/><path d="m37.001 239.5v155.77h157.2v79.73h78.6v-235.5z" fill="#a0c8ff"/><g><circle cx="314.001" cy="28.86" r="10"/><path d="m510.463 469.672-17-27c-2.941-4.673-9.116-6.077-13.79-3.134-4.674 2.942-6.077 9.116-3.134 13.79l7.349 11.672h-201.087v-211.791c7.835-20.886 14.666-42.549 20.4-64.789 9.63-37.37 16.01-75.67 18.949-113.82.42-5.49-3.71-10.31-9.199-10.74-2.78-.21-5.511.74-7.551 2.62-1.859 1.721-3 4.061-3.189 6.59-4.099 53.466-15.256 106.938-32.164 156.431h-223.046v-201.388l11.672 7.349c1.655 1.043 3.497 1.54 5.318 1.539 3.322 0 6.571-1.654 8.472-4.673 2.943-4.674 1.54-10.848-3.134-13.79l-27-17c-3.256-2.051-7.4-2.051-10.656 0l-27 17c-4.674 2.942-6.077 9.116-3.134 13.79 2.941 4.672 9.116 6.078 13.79 3.134l11.672-7.349v43.887h-11.75c-5.522 0-10 4.478-10 10s4.478 10 10 10h11.75v58.6h-11.75c-5.522 0-10 4.478-10 10s4.478 10 10 10h11.75v58.6h-11.75c-5.522 0-10 4.478-10 10s4.478 10 10 10h11.75v58.6h-11.75c-5.522 0-10 4.478-10 10s4.478 10 10 10h11.75v58.601h-11.75c-5.522 0-10 4.478-10 10s4.478 10 10 10h11.75v58.599h-17c-5.522 0-10 4.478-10 10s4.478 10 10 10h17v17c0 5.522 4.478 10 10 10s10-4.478 10-10v-17h58.6v11c0 5.522 4.478 10 10 10s10-4.478 10-10v-11h58.601v11c0 5.522 4.478 10 10 10s10-4.478 10-10v-11h58.6v11c0 5.522 4.478 10 10 10s10-4.478 10-10v-11h58.601v11c0 5.522 4.478 10 10 10s10-4.478 10-10v-11h58.6v11c0 5.522 4.478 10 10 10s10-4.478 10-10v-11h43.887l-7.349 11.672c-2.943 4.674-1.54 10.848 3.134 13.79 1.655 1.043 3.497 1.539 5.318 1.539 3.322 0 6.571-1.654 8.472-4.673l17-27c2.049-3.256 2.049-7.4-.002-10.656zm-463.462-220.172h215.8v.037c-13.197 34.553-29.238 66.798-47.68 95.253-9.556 14.768-19.58 28.264-30.013 40.479h-138.107zm119.484 155.78c-10.552 10.345-21.466 19.451-32.703 27.26-27.964 19.399-57.105 30.189-86.78 32.135v-59.395zm-48.123 59.72c9.097-4.59 18.065-9.943 26.829-16.04 13.475-9.381 26.512-20.49 39.011-33.172v49.212zm85.84 0v-69.72c0-.515-.052-1.026-.132-1.531 21.813-26.367 41.611-57.81 58.731-93.498v164.749z"/></g></g></svg>