<svg id="Layer_1" enable-background="new 0 0 512.001 512.001" height="512" viewBox="0 0 512.001 512.001" width="512" xmlns="http://www.w3.org/2000/svg"><g><g fill="#b8ecbc"><circle cx="155.001" cy="262" r="20"/><circle cx="230.001" cy="174" r="20"/><circle cx="350.001" cy="208.75" r="20"/><circle cx="460.001" cy="102" r="20"/></g><g><path d="m510.463 469.672-17-27c-2.941-4.673-9.116-6.078-13.79-3.134-4.674 2.943-6.077 9.117-3.134 13.791l7.349 11.671h-436.887v-258c0-5.51-4.49-10-10-10s-10 4.49-10 10v25h-11.75c-5.523 0-10 4.477-10 10s4.477 10 10 10h11.75v60h-11.75c-5.523 0-10 4.477-10 10s4.477 10 10 10h11.75v60h-11.75c-5.523 0-10 4.477-10 10s4.477 10 10 10h11.75v53h-17c-5.523 0-10 4.477-10 10s4.477 10 10 10h17v17c0 5.51 4.49 10 10 10s10-4.49 10-10v-17h53v11.75c0 5.523 4.477 10 10 10s10-4.477 10-10v-11.75h60v11.75c0 5.523 4.477 10 10 10s10-4.477 10-10v-11.75h60v11.75c0 5.523 4.478 10 10 10s10-4.477 10-10v-11.75h60v11.75c0 5.523 4.478 10 10 10s10-4.477 10-10v-11.75h60v11.75c0 5.523 4.478 10 10 10s10-4.477 10-10v-11.75h43.887l-7.349 11.672c-2.943 4.674-1.54 10.848 3.134 13.791 1.655 1.042 3.497 1.539 5.318 1.539 3.322 0 6.571-1.655 8.472-4.673l17-27c2.051-3.257 2.051-7.401 0-10.657z"/><circle cx="37.001" cy="162" r="10"/><path d="m15.329 35.462 11.672-7.349v43.887h-11.75c-5.523 0-10 4.477-10 10s4.477 10 10 10h11.75v25c0 5.51 4.49 10 10 10s10-4.49 10-10v-88.887l11.672 7.349c1.655 1.042 3.498 1.539 5.319 1.539 3.321 0 6.571-1.655 8.472-4.673 2.942-4.674 1.54-10.848-3.134-13.791l-27-17c-3.256-2.05-7.4-2.05-10.656 0l-27 17c-4.674 2.943-6.077 9.117-3.134 13.791 2.942 4.674 9.117 6.077 13.789 3.134z"/><path d="m155.001 292c16.542 0 30-13.458 30-30s-13.458-30-30-30-30 13.458-30 30 13.458 30 30 30zm0-40c5.514 0 10 4.486 10 10s-4.486 10-10 10-10-4.486-10-10 4.486-10 10-10z"/><path d="m230.001 204c16.542 0 30-13.458 30-30s-13.458-30-30-30-30 13.458-30 30 13.458 30 30 30zm0-40c5.514 0 10 4.486 10 10s-4.486 10-10 10-10-4.486-10-10 4.486-10 10-10z"/><path d="m350.001 238.75c16.542 0 30-13.458 30-30s-13.458-30-30-30-30 13.458-30 30 13.458 30 30 30zm0-40c5.514 0 10 4.486 10 10s-4.486 10-10 10-10-4.486-10-10 4.487-10 10-10z"/><path d="m460.001 132c16.542 0 30-13.458 30-30s-13.458-30-30-30-30 13.458-30 30 13.458 30 30 30zm0-40c5.514 0 10 4.486 10 10s-4.486 10-10 10-10-4.486-10-10 4.487-10 10-10z"/><circle cx="148.001" cy="168" r="10"/><circle cx="430.001" cy="180" r="10"/><circle cx="244.001" cy="269" r="10"/><circle cx="394.001" cy="305" r="10"/><circle cx="316.001" cy="356" r="10"/><circle cx="210.001" cy="330" r="10"/><circle cx="155.001" cy="330" r="10"/><circle cx="110.001" cy="367" r="10"/><circle cx="70.001" cy="428" r="10"/><circle cx="275.001" cy="102" r="10"/></g></g></svg>