<svg id="Layer_1" enable-background="new 0 0 512 512" height="512" viewBox="0 0 512 512" width="512" xmlns="http://www.w3.org/2000/svg"><g><g fill="#fff"><path d="m481 502h-450l45-98.4h360z"/><path d="m181 403.6v98.4h-150l45-98.4z"/><path d="m481 502h-150v-98.4h105z"/></g><path d="m436 403.6h-180v-98.4h135z" fill="#a0c8ff"/><path d="m256 305.2v98.4h-180l45-98.4z" fill="#a0c8ff"/><path d="m391 305.2h-270l45-98.4h180z" fill="#b8ecbc"/><path d="m346 206.8h-180l45-98.4h90z" fill="#ffda8f"/><path d="m301 108.4h-90l45-98.4z" fill="#ff7b79"/><g><path d="m490.09 497.84-224.996-491.999c-1.627-3.559-5.181-5.841-9.094-5.841s-7.467 2.282-9.094 5.841l-224.996 491.999c-1.431 3.11-1.17 6.69.68 9.56 1.84 2.88 4.99 4.6 8.41 4.6h180c5.51 0 10-4.49 10-10s-4.48-9.99-9.99-10c0 0 0 0-.01 0h-20v-78.4h130v78.4h-20c-5.51 0-10 4.49-10 10s4.49 10 10 10h180c3.42 0 6.56-1.72 8.41-4.6 1.85-2.87 2.11-6.45.68-9.56zm-234.09-463.795 29.431 64.355h-58.861zm-38.577 84.355h77.154l35.854 78.4h-148.861zm-45 98.4h167.154l35.854 78.4h-238.861zm-1.423 275.2h-124.43l35.851-78.4h88.579zm75-98.4h-154.43l35.854-78.4h118.576zm20-78.4h118.577l35.854 78.4h-154.431zm75 176.8v-78.4h88.569l35.86 78.4z"/><circle cx="256" cy="502" r="10"/></g></g></svg>