<svg id="Layer_1" enable-background="new 0 0 512 512" height="512" viewBox="0 0 512 512" width="512" xmlns="http://www.w3.org/2000/svg"><g><path d="m133 43.002-123 213 123 213h246.001l123.001-213-123.001-213z" fill="#ffda8f"/><path d="m182.202 381.644-121.58-126.72 103.188-160.723 168.998 26.638 47.527 130.008-30.9 164.801z" fill="#b8ecbc"/><g><circle cx="442.547" cy="358.96" r="10"/><path d="m510.657 251-123-213c-1.78-3.08-5.1-5-8.66-5h-246.001c-3.56 0-6.87 1.92-8.66 5l-123.001 213c-1.78 3.08-1.78 6.92 0 10l123.001 213c1.78 3.09 5.1 5 8.66 5h246.001c3.57 0 6.88-1.91 8.66-5l41.05-71.07c2.75-4.78 1.11-10.91-3.66-13.66-1.52-.88-3.25-1.34-4.99-1.34-3.57 0-6.89 1.91-8.67 5l-32.387 56.073-19.359-33.524 28.026-149.478h97.013l-28.294 48.988c-1.33 2.31-1.69 5.01-1 7.59s2.35 4.73 4.66 6.07c1.52.88 3.25 1.34 4.99 1.34 3.57 0 6.89-1.92 8.67-5 .01 0 .01-.01.01-.01l36.94-63.98c1.792-3.079 1.792-6.919.001-9.999zm-271.979 15.001-57.701 99.922-95.869-99.922zm-160.444-20 84.469-131.567 75.975 131.567zm177.767 29.997 72.264 125.14-129.342-26.299zm-74.424-168.874 136.43 21.505-62.006 107.375zm-12.863-22.274-18.393-31.85h211.359l-32.957 57.071zm-35.713-21.85 18.448 31.946-96.982 151.055h-27.148zm-105.68 203.001h30.071l113.172 117.956-37.561 65.045zm334.357 192.999h-211.355l38.053-65.896 153.243 31.159zm-17.398-70.121-70.958-122.877h93.996zm-70.957-142.878 57.924-100.308 36.669 100.308zm70.964-122.888 34.714-60.114 105.682 183.003h-95.473z"/></g></g></svg>