<svg id="Layer_1" enable-background="new 0 0 512.001 512.001" height="512" viewBox="0 0 512.001 512.001" width="512" xmlns="http://www.w3.org/2000/svg"><g><path d="m350.001 287v188h-160v-306.29l80 83.29z" fill="#a0c8ff"/><g><path d="m510.463 469.672-17-27c-2.941-4.673-9.116-6.078-13.79-3.134-4.674 2.943-6.077 9.117-3.134 13.791l7.349 11.671h-123.887v-38c0-5.51-4.49-10-10-10s-9.99 4.48-10 9.98v.02 38h-140v-271.443l62.788 65.37c.91.948 1.999 1.708 3.204 2.234l74.008 32.378v43.461c0 5.51 4.49 10 10 10s10-4.49 10-10v-47.573l70.738-137.054 7.382 11.757c1.899 3.025 5.151 4.684 8.479 4.684 1.816 0 3.655-.495 5.308-1.532 4.678-2.937 6.089-9.109 3.151-13.787l-16.966-27.021c-2.045-3.258-5.771-5.052-9.604-4.618l-31.7 3.62c-5.487.627-9.428 5.583-8.801 11.07.628 5.488 5.586 9.432 11.07 8.801l13.602-1.553-67.245 130.285-69.582-30.442-78.621-81.854c-2.896-3.016-7.362-3.911-11.197-2.244l-80 34.765c-2.904 1.262-5.039 3.825-5.755 6.909l-53.259 229.331v-402.431l11.672 7.349c1.655 1.042 3.498 1.539 5.319 1.539 3.321 0 6.571-1.655 8.472-4.673 2.942-4.674 1.54-10.848-3.134-13.791l-27-17c-3.256-2.05-7.4-2.05-10.656 0l-27 17c-4.674 2.943-6.077 9.117-3.134 13.791s9.118 6.077 13.791 3.134l11.672-7.349v43.887h-10.75c-5.523 0-10 4.477-10 10s4.477 10 10 10h10.75v60h-10.75c-5.523 0-10 4.477-10 10s4.477 10 10 10h10.75v60h-10.75c-5.523 0-10 4.477-10 10s4.477 10 10 10h10.75v60h-10.75c-5.523 0-10 4.477-10 10s4.477 10 10 10h10.75v60h-10.75c-5.523 0-10 4.477-10 10s4.477 10 10 10h10.75v53h-17c-5.523 0-10 4.477-10 10s4.477 10 10 10h17v17c0 5.523 4.477 10 10 10s10-4.477 10-10v-17h53v11.75c0 5.523 4.477 10 10 10s10-4.477 10-10v-11.75h60v11.75c0 5.523 4.477 10 10 10s10-4.477 10-10v-11.75h60v11.75c0 5.523 4.478 10 10 10s10-4.477 10-10v-11.75h60v11.75c0 5.523 4.478 10 10 10s10-4.477 10-10v-11.75h60v11.75c0 5.523 4.478 10 10 10s10-4.477 10-10v-11.75h43.887l-7.349 11.672c-2.943 4.674-1.54 10.848 3.134 13.791 1.655 1.042 3.497 1.539 5.318 1.539 3.322 0 6.571-1.655 8.472-4.673l17-27c2.049-3.257 2.049-7.401-.002-10.657zm-450.931-4.672 59.072-254.359 61.398-26.681v281.04z"/><circle cx="350.001" cy="382" r="10"/></g></g></svg>