<svg id="Layer_1" enable-background="new 0 0 512 512" height="512" viewBox="0 0 512 512" width="512" xmlns="http://www.w3.org/2000/svg"><g><path d="m502 10c0 20.92-4.95 41.47-14.36 60h-463.28c-9.41-18.53-14.36-39.08-14.36-60z" fill="#a0c8ff"/><path d="m487.64 70c-2.31 4.57-4.9 9.03-7.76 13.33l-90.9 136.96c-11.5 17.33-20.44 36.09-26.65 55.71h-212.66c-6.21-19.62-15.15-38.38-26.65-55.71l-90.9-136.96c-2.86-4.3-5.45-8.76-7.76-13.33z" fill="#b8ecbc"/><path d="m362.33 276c-6.81 21.51-10.33 44.05-10.33 66.86v159.14h-192v-159.14c0-22.81-3.52-45.35-10.33-66.86z" fill="#ffda8f"/><g><circle cx="407.155" cy="192.9" r="10"/><path d="m509.069 2.93c-1.859-1.86-4.439-2.93-7.069-2.93h-492c-2.63 0-5.21 1.07-7.07 2.93-1.861 1.86-2.93 4.44-2.93 7.07 0 13.96 2.04 27.82 6.08 41.18 4.029 13.37 9.989 26.05 17.71 37.68l90.899 136.96c23.101 34.8 35.311 75.28 35.311 117.05v159.13c0 2.63 1.069 5.21 2.93 7.07s4.44 2.93 7.07 2.93h192c2.63 0 5.21-1.07 7.069-2.93 1.86-1.86 2.931-4.44 2.931-7.07v-159.13c0-37.68 10.09-74.75 29.17-107.23 2.79-4.76 1.2-10.9-3.561-13.69-1.529-.9-3.279-1.38-5.05-1.38-3.54 0-6.84 1.89-8.63 4.94-7.583 12.902-13.861 26.47-18.792 40.49h-198.27c-6.351-18.058-14.902-35.255-25.508-51.24l-89.448-134.76h428.179l-46.39 69.88c-3.04 4.59-1.79 10.81 2.81 13.86 1.64 1.09 3.55 1.67 5.521 1.67 3.359 0 6.479-1.67 8.34-4.47 0-.01.01-.01.01-.01l47.83-72.07c7.72-11.63 13.68-24.31 17.71-37.68 4.039-13.36 6.079-27.22 6.079-41.18 0-2.63-1.07-5.21-2.931-7.07zm-167.069 339.94v149.13h-172v-149.13c0-19.204-2.39-38.285-7.096-56.87h186.193c-4.69 18.516-7.097 37.621-7.097 56.87zm149.59-322.87c-1.128 13.824-4.633 27.374-10.268 40h-450.646c-5.634-12.624-9.138-26.17-10.266-40z"/><path d="m247.922 442.895c1.883 2.58 4.885 4.105 8.078 4.105s6.195-1.525 8.078-4.105l27-37c3.255-4.461 2.278-10.717-2.184-13.973-4.461-3.254-10.717-2.278-13.973 2.184l-8.921 12.226v-65.332c0-5.523-4.478-10-10-10s-10 4.477-10 10v65.332l-8.922-12.226c-3.256-4.462-9.512-5.438-13.973-2.184-4.462 3.256-5.438 9.512-2.184 13.973z"/></g></g></svg>