<svg id="Layer_1" enable-background="new 0 0 512 512" height="512" viewBox="0 0 512 512" width="512" xmlns="http://www.w3.org/2000/svg"><g><g fill="#fff"><ellipse cx="153" cy="230.645" rx="20" ry="20.027"/><ellipse cx="50" cy="230.645" rx="20" ry="20.027"/><ellipse cx="359" cy="230.645" rx="20" ry="20.027"/><ellipse cx="256" cy="230.645" rx="20" ry="20.027"/><ellipse cx="462" cy="230.645" rx="20" ry="20.027"/></g><path d="m256 290.727 59.063 83.983c20.891 28.624 18.428 69.005-7.388 94.856-28.539 28.578-74.809 28.578-103.348 0-25.566-25.601-28.229-65.451-7.989-94.021z" fill="#ffda8f"/><path d="m153 171.205-44.297-62.987c-15.668-21.468-13.821-51.754 5.541-71.142 21.404-21.433 56.107-21.433 77.511 0 19.174 19.201 21.172 49.088 5.992 70.516z" fill="#a0c8ff"/><path d="m359 171.205-44.297-62.987c-15.668-21.468-13.821-51.754 5.541-71.142 21.404-21.433 56.107-21.433 77.511 0 19.174 19.201 21.172 49.088 5.992 70.516z" fill="#a0c8ff"/><path d="m462 171.205-17.719-25.195c-6.267-8.587-5.528-20.701 2.217-28.457 8.562-8.573 22.443-8.573 31.004 0 7.67 7.68 8.469 19.635 2.397 28.206z" fill="#b8ecbc"/><path d="m50 171.205-17.719-25.195c-6.267-8.587-5.528-20.701 2.217-28.457 8.562-8.573 22.443-8.573 31.004 0 7.67 7.68 8.469 19.635 2.397 28.206z" fill="#b8ecbc"/><g><path d="m502 220.645h-11.717c-4.126-11.654-15.243-20.027-28.283-20.027s-24.157 8.373-28.283 20.027h-46.434c-4.126-11.654-15.243-20.027-28.283-20.027s-24.157 8.373-28.283 20.027h-46.434c-4.126-11.654-15.243-20.027-28.283-20.027s-24.157 8.373-28.283 20.027h-46.434c-4.126-11.654-15.243-20.027-28.283-20.027s-24.157 8.373-28.283 20.027h-46.434c-4.126-11.654-15.243-20.027-28.283-20.027s-24.157 8.373-28.283 20.027h-11.717c-5.523 0-10 4.477-10 10s4.477 10 10 10h11.717c4.126 11.654 15.243 20.027 28.283 20.027s24.157-8.373 28.283-20.027h46.434c4.126 11.654 15.243 20.027 28.283 20.027s24.157-8.373 28.283-20.027h46.434c4.126 11.654 15.243 20.027 28.283 20.027s24.157-8.373 28.283-20.027h46.434c4.126 11.654 15.243 20.027 28.283 20.027s24.157-8.373 28.283-20.027h46.434c4.126 11.654 15.243 20.027 28.283 20.027s24.157-8.373 28.283-20.027h11.717c5.523 0 10-4.477 10-10s-4.477-10-10-10zm-452 20.027c-5.514 0-10-4.498-10-10.027s4.486-10.027 10-10.027 10 4.498 10 10.027-4.486 10.027-10 10.027zm103 0c-5.514 0-10-4.498-10-10.027s4.486-10.027 10-10.027 10 4.498 10 10.027-4.486 10.027-10 10.027zm103 0c-5.514 0-10-4.498-10-10.027s4.486-10.027 10-10.027 10 4.498 10 10.027-4.486 10.027-10 10.027zm103 0c-5.514 0-10-4.498-10-10.027s4.486-10.027 10-10.027 10 4.498 10 10.027-4.486 10.027-10 10.027zm103 0c-5.514 0-10-4.498-10-10.027s4.486-10.027 10-10.027 10 4.498 10 10.027-4.486 10.027-10 10.027z"/><path d="m323.18 368.87-59-83.9c-1.87-2.66-4.93-4.24-8.18-4.24s-6.31 1.58-8.18 4.24l-59.66 84.82c-5 7.06-8.84 14.82-11.43 23.08-2.53 8.07-3.81 16.47-3.81 24.95 0 10.78 2.04 21.31 6.09 31.29 4.18 10.34 10.32 19.59 18.24 27.53 7.91 7.92 17.15 14.07 27.46 18.26 9.97 4.05 20.48 6.1 31.24 6.1h.05c5.17 0 10.37-.49 15.44-1.44 5.42-1.02 9-6.27 7.98-11.68-.89-4.73-5.02-8.15-9.82-8.15-.62 0-1.25.06-1.86.17-3.86.73-7.81 1.1-11.74 1.1-16.85-.01-32.69-6.58-44.6-18.5-11.91-11.93-18.47-27.79-18.48-44.68 0-13.19 4.01-25.81 11.57-36.49l51.51-73.22 50.99 72.5c7.9 10.83 12.08 23.9 12.09 37.81 0 3.03-.24 6.1-.69 9.12-.4 2.64.25 5.28 1.84 7.43 1.58 2.15 3.91 3.55 6.55 3.95 2.86.43 5.79-.41 7.99-2.28 1.83-1.56 3.03-3.73 3.39-6.11.61-4 .91-8.07.91-12.11.01-8.8-1.31-17.45-3.9-25.72-2.7-8.6-6.73-16.62-11.99-23.83z"/><circle cx="308.549" cy="468.67" r="10"/><path d="m144.82 176.957c1.873 2.663 4.924 4.248 8.179 4.248 3.255 0 6.306-1.584 8.179-4.247l44.728-63.586c18.317-25.856 15.341-60.915-7.076-83.362-12.24-12.259-28.517-19.01-45.83-19.01s-33.59 6.751-45.831 19.009c-10.997 11.012-17.675 25.618-18.805 41.131-1.116 15.315 3.22 30.547 12.209 42.9zm-23.499-132.816c8.462-8.474 19.713-13.141 31.679-13.141s23.217 4.667 31.68 13.142c15.512 15.533 17.576 39.786 4.889 57.696l-36.567 51.985s-36.186-51.453-36.22-51.5c-12.895-17.667-10.943-42.679 4.539-58.182z"/><path d="m350.82 176.957c1.873 2.663 4.924 4.248 8.179 4.248 3.255 0 6.306-1.584 8.179-4.247l44.728-63.586c18.317-25.856 15.341-60.915-7.076-83.362-12.24-12.259-28.517-19.01-45.83-19.01s-33.59 6.751-45.831 19.009c-10.997 11.012-17.675 25.619-18.805 41.131-1.116 15.315 3.22 30.547 12.209 42.9zm-23.499-132.816c8.462-8.474 19.713-13.141 31.679-13.141s23.217 4.667 31.68 13.142c15.512 15.533 17.576 39.786 4.889 57.696l-36.567 51.985s-36.186-51.453-36.22-51.5c-12.895-17.667-10.943-42.679 4.539-58.182z"/><path d="m453.82 176.957c1.873 2.663 4.924 4.248 8.179 4.248 3.255 0 6.306-1.584 8.179-4.247l17.879-25.418c9.021-12.734 7.558-30-3.48-41.054-6.03-6.038-14.049-9.364-22.578-9.364s-16.548 3.326-22.579 9.364c-11.174 11.19-12.545 28.562-3.274 41.341zm-.247-52.338c2.252-2.255 5.245-3.497 8.427-3.497s6.175 1.242 8.426 3.496c4.133 4.139 4.686 10.599 1.293 15.387l-9.719 13.816s-9.608-13.661-9.642-13.708c-3.432-4.702-2.91-11.363 1.215-15.494z"/><path d="m41.82 176.957c1.873 2.663 4.924 4.248 8.179 4.248 3.255 0 6.306-1.584 8.179-4.247l17.879-25.418c9.021-12.734 7.558-30-3.48-41.054-6.03-6.038-14.049-9.364-22.578-9.364s-16.548 3.326-22.579 9.364c-11.174 11.19-12.545 28.562-3.274 41.341zm-.247-52.338c2.252-2.255 5.245-3.497 8.427-3.497s6.175 1.242 8.426 3.496c4.133 4.139 4.686 10.599 1.293 15.387l-9.719 13.816s-9.608-13.661-9.642-13.708c-3.432-4.702-2.91-11.363 1.215-15.494z"/></g></g></svg>