<svg id="Layer_1" enable-background="new 0 0 512.001 512.001" height="512" viewBox="0 0 512.001 512.001" width="512" xmlns="http://www.w3.org/2000/svg"><g><g fill="#b8ecbc"><path d="m37.001 214h120v40h-120z" transform="matrix(0 1 -1 0 331.001 136.999)"/><path d="m267.001 204h140v40h-140z" transform="matrix(0 1 -1 0 561.001 -113.001)"/><path d="m332.001 179h170v40h-170z" transform="matrix(0 1 -1 0 616.001 -218.001)"/></g><path d="m142.001 254.333h70v40h-70z" fill="#ff7b79" transform="matrix(0 -1 1 0 -97.332 451.335)"/><path d="m212.001 304.333h90v40h-90z" fill="#ff7b79" transform="matrix(0 -1 1 0 -67.332 581.335)"/><g><path d="m510.464 469.672-17-27c-2.943-4.674-9.118-6.077-13.791-3.134-4.674 2.943-6.077 9.117-3.134 13.791l7.349 11.671h-436.887v-436.887l11.672 7.349c1.655 1.042 3.498 1.539 5.319 1.539 3.321 0 6.571-1.655 8.472-4.673 2.942-4.674 1.54-10.848-3.134-13.791l-27-17c-3.256-2.05-7.4-2.05-10.656 0l-27 17c-4.674 2.943-6.077 9.117-3.134 13.791s9.118 6.077 13.791 3.134l11.672-7.349v43.887h-11.75c-5.523 0-10 4.477-10 10s4.477 10 10 10h11.75v60h-11.75c-5.523 0-10 4.477-10 10s4.477 10 10 10h11.75v60h-11.75c-5.523 0-10 4.477-10 10s4.477 10 10 10h11.75v60h-11.75c-5.523 0-10 4.477-10 10s4.477 10 10 10h11.75v60h-11.75c-5.523 0-10 4.477-10 10s4.477 10 10 10h11.75v53h-17c-5.523 0-10 4.477-10 10s4.477 10 10 10h17v17c0 5.523 4.477 10 10 10s10-4.477 10-10v-17h53v11.75c0 5.523 4.477 10 10 10s10-4.477 10-10v-11.75h60v11.75c0 5.523 4.477 10 10 10s10-4.477 10-10v-11.75h60v11.75c0 5.523 4.477 10 10 10s10-4.477 10-10v-11.75h60v11.75c0 5.523 4.477 10 10 10s10-4.477 10-10v-11.75h60v11.75c0 5.523 4.477 10 10 10s10-4.477 10-10v-11.75h43.887l-7.349 11.672c-2.942 4.674-1.54 10.848 3.134 13.791 1.655 1.042 3.498 1.539 5.319 1.539 3.321 0 6.571-1.655 8.472-4.673l17-27c2.048-3.257 2.048-7.401-.002-10.657z"/><path d="m67.001 174v120c0 5.523 4.477 10 10 10h10v22.333c0 5.523 4.477 10 10 10s10-4.477 10-10v-22.333h10c5.523 0 10-4.477 10-10v-120c0-5.523-4.477-10-10-10h-10v-57c0-5.523-4.477-10-10-10s-10 4.477-10 10v57h-10c-5.523 0-10 4.477-10 10zm20 10h20v100h-20z"/><path d="m317.001 304h10v32.333c0 5.523 4.477 10 10 10s10-4.477 10-10v-32.333h10c5.523 0 10-4.477 10-10v-140c0-5.523-4.477-10-10-10h-10v-87c0-5.523-4.477-10-10-10s-10 4.477-10 10v87h-10c-5.523 0-10 4.477-10 10v140c0 5.523 4.477 10 10 10zm10-140h20v120h-20z"/><path d="m397.001 294h10v12.333c0 5.523 4.477 10 10 10s10-4.477 10-10v-12.333h10c2.63 0 5.21-1.07 7.07-2.93s2.93-4.44 2.93-7.07v-40c0-5.51-4.49-10-10-10s-10 4.49-10 10v30h-20v-150h20v30c0 5.52 4.49 10 10 10 5.52 0 10-4.48 10-10v-.01-39.99c0-2.63-1.07-5.21-2.93-7.07s-4.44-2.93-7.07-2.93h-10v-94c0-5.523-4.477-10-10-10s-10 4.477-10 10v94h-10c-2.63 0-5.21 1.07-7.07 2.93s-2.93 4.44-2.93 7.07v170c0 2.63 1.07 5.21 2.93 7.07s4.44 2.93 7.07 2.93z"/><circle cx="437.001" cy="199" r="10"/><path d="m157.001 319.333h10v67c0 5.523 4.477 10 10 10s10-4.477 10-10v-67h10c5.523 0 10-4.477 10-10v-70c0-5.523-4.477-10-10-10h-10v-22.333c0-5.523-4.477-10-10-10s-10 4.477-10 10v22.333h-10c-5.523 0-10 4.477-10 10v70c0 5.523 4.477 10 10 10zm10-70h20v50h-20z"/><path d="m237.001 379.333h10v47c0 5.523 4.477 10 10 10s10-4.477 10-10v-47h10c5.523 0 10-4.477 10-10v-90c0-5.523-4.477-10-10-10h-10v-12.333c0-5.523-4.477-10-10-10s-10 4.477-10 10v12.333h-10c-5.523 0-10 4.477-10 10v90c0 5.523 4.477 10 10 10zm10-90h20v70h-20z"/></g></g></svg>