<svg id="Layer_1" enable-background="new 0 0 512 512" height="512" viewBox="0 0 512 512" width="512" xmlns="http://www.w3.org/2000/svg"><g><g fill="#a0c8ff"><path d="m45 98h80v210h-80z"/><path d="m125 151h80v157h-80z"/><path d="m205 199h80v109h-80z"/><path d="m285 132h80v176h-80z"/><path d="m365 28h80v280h-80z"/></g><path d="m45 308h80v92h-80z" fill="#ff7b79"/><path d="m125 308h80v78.686h-80z" fill="#ff7b79"/><path d="m205 308h80v48.514h-80z" fill="#ff7b79"/><path d="m285 308h80v80.629h-80z" fill="#ff7b79"/><path d="m365 308h80v176h-80z" fill="#ff7b79"/><g><circle cx="445" cy="143" r="10"/><path d="m510.449 302.651-17.25-27.25c-2.952-4.666-9.129-6.056-13.798-3.101-4.666 2.954-6.055 9.131-3.101 13.798l7.535 11.902h-28.835v-110c0-5.51-4.49-10-10-10s-10 4.49-10 10v110h-60v-260h60v60c0 5.51 4.49 10 10 10s10-4.49 10-10v-.01-69.99c0-2.63-1.07-5.21-2.931-7.07-1.859-1.86-4.439-2.93-7.069-2.93h-80c-2.641 0-5.21 1.07-7.07 2.93s-2.93 4.44-2.93 7.07v94h-70c-5.522 0-10 4.477-10 10v57h-60v-38c0-5.523-4.478-10-10-10h-70v-43c0-5.523-4.478-10-10-10h-80c-5.522 0-10 4.477-10 10v200h-25c-5.522 0-10 4.477-10 10s4.478 10 10 10h25v82c0 5.523 4.478 10 10 10h80c5.522 0 10-4.477 10-10v-3.314h70c5.522 0 10-4.477 10-10v-20.171h60v22.114c0 5.523 4.478 10 10 10h70v85.371c0 5.523 4.478 10 10 10h80c5.522 0 10-4.477 10-10v-166h28.835l-7.534 11.901c-2.954 4.667-1.565 10.844 3.101 13.798 1.659 1.051 3.511 1.552 5.339 1.552 3.313 0 6.556-1.646 8.459-4.653l17.25-27.25c2.067-3.266 2.067-7.431-.001-10.697zm-215.449-160.651h60v156h-60zm-20 67v89h-60v-89zm-80-48v137h-60v-137zm-140-53h60v190h-60zm60 282h-60v-72h60zm80-13.315h-60v-58.685h60zm20-30.171v-28.514h60v28.514zm80 32.114v-60.628h60v60.628zm140 95.372h-60v-156h60z"/></g></g></svg>