<svg id="Layer_1" enable-background="new 0 0 512 512" height="512" viewBox="0 0 512 512" width="512" xmlns="http://www.w3.org/2000/svg"><g><path d="m313.164 207.644h-98.886v-98.99c0-54.485 44.169-98.654 98.654-98.654h.232c54.485 0 98.654 44.169 98.654 98.654v.336c-.001 54.485-44.169 98.654-98.654 98.654z" fill="#b8ecbc"/><path d="m468.5 374.894c0 70.119-56.942 127.106-127.061 127.106-70.119 0-127.161-56.843-127.161-126.962v-127.394h127.26c70.119 0 126.962 57.131 126.962 127.25z" fill="#a0c8ff"/><path d="m174.299 207.644h-65.477c-36.077 0-65.323-29.246-65.323-65.323v-.223c0-36.077 29.246-65.323 65.323-65.323h.154c36.077 0 65.323 29.246 65.323 65.323z" fill="#ffda8f"/><path d="m117.064 362.31h-.135c-31.61 0-57.235-25.625-57.235-57.235v-.195c0-31.61 25.625-57.235 57.235-57.235h57.37v57.43c0 31.609-25.625 57.235-57.235 57.235z" fill="#ff7b79"/><g><path d="m214.278 217.644h98.886c59.912 0 108.654-48.742 108.654-108.654v-.336c-.001-59.912-48.742-108.654-108.654-108.654h-.232c-59.912 0-108.654 48.742-108.654 108.654v98.99c0 5.523 4.477 10 10 10zm10-108.99c0-48.884 39.77-88.654 88.654-88.654h.232c48.884 0 88.654 39.77 88.654 88.654v.336c0 48.884-39.77 88.654-88.654 88.654h-88.886z"/><path d="m467.74 321.54c-3.43-8.12-7.68-15.97-12.63-23.3-4.89-7.27-10.52-14.11-16.72-20.33-6.19-6.21-13.01-11.86-20.26-16.77-7.32-4.97-15.15-9.23-23.27-12.68-16.89-7.17-34.83-10.81-53.32-10.82h-127.26c-2.63 0-5.21 1.07-7.07 2.93s-2.93 4.44-2.93 7.08v127.39c0 18.49 3.64 36.43 10.8 53.319 3.44 8.11 7.7 15.94 12.66 23.261 4.91 7.25 10.55 14.069 16.76 20.27s13.04 11.82 20.31 16.72c7.33 4.95 15.17 9.19 23.29 12.62 16.9 7.14 34.85 10.77 53.34 10.77h.03c10.68 0 21.34-1.24 31.67-3.7 5.37-1.27 8.7-6.67 7.42-12.04-1.07-4.53-5.07-7.69-9.72-7.69-.77 0-1.55.091-2.32.271-8.82 2.1-17.93 3.16-27.08 3.16-31.25 0-60.66-12.17-82.81-34.271-22.15-22.109-34.35-51.479-34.35-82.689v-117.4h117.26c31.2.01 60.57 12.22 82.69 34.39 22.1 22.18 34.27 51.61 34.27 82.86 0 24.95-7.76 48.771-22.44 68.9-1.57 2.16-2.21 4.8-1.8 7.439.42 2.641 1.83 4.96 3.99 6.53 1.73 1.26 3.76 1.93 5.89 1.93 3.19 0 6.21-1.54 8.08-4.109 8.37-11.471 14.88-24.101 19.34-37.54 4.61-13.891 6.94-28.41 6.94-43.15 0-18.491-3.62-36.441-10.76-53.351z"/><circle cx="411.845" cy="480.68" r="10"/><path d="m108.977 66.775h-.154c-41.533 0-75.323 33.79-75.323 75.323v.223c0 41.533 33.79 75.323 75.323 75.323h65.477c5.523 0 10-4.477 10-10v-65.545c-.001-41.534-33.79-75.324-75.323-75.324zm55.322 130.869h-55.477c-30.505 0-55.323-24.818-55.323-55.323v-.223c0-30.505 24.818-55.323 55.323-55.323h.154c30.505 0 55.323 24.818 55.323 55.323z"/><path d="m174.299 237.644h-57.37c-37.074 0-67.235 30.162-67.235 67.235v.195c0 37.074 30.162 67.235 67.235 67.235h.134c37.074 0 67.235-30.162 67.235-67.235v-57.43c.001-5.523-4.476-10-9.999-10zm-10 67.43c0 26.045-21.19 47.235-47.235 47.235h-.134c-26.046 0-47.235-21.19-47.235-47.235v-.195c0-26.045 21.189-47.235 47.235-47.235h47.37v47.43z"/></g></g></svg>