<svg id="Layer_1" enable-background="new 0 0 512 512" height="512" viewBox="0 0 512 512" width="512" xmlns="http://www.w3.org/2000/svg"><g><path d="m45 341h80v160h-80z" fill="#a0c8ff"/><path d="m125 341h80v107h-80z" fill="#a0c8ff"/><g fill="#ffda8f"><path d="m205 182h80v159h-80z"/><path d="m285 115h80v226h-80z"/><path d="m365 11h80v330h-80z"/></g><g><circle cx="445" cy="176" r="10"/><path d="m510.449 335.651-17.25-27.25c-2.953-4.665-9.13-6.057-13.798-3.101-4.666 2.954-6.055 9.132-3.101 13.798l7.535 11.902h-28.835v-110c0-5.51-4.49-10-10-10s-10 4.49-10 10v110h-60v-310h60v110c0 5.51 4.49 10 10 10s10-4.49 10-10c0-.01 0-.01 0-.01v-119.99c0-2.63-1.07-5.21-2.931-7.07-1.859-1.861-4.439-2.93-7.069-2.93h-80c-2.63 0-5.21 1.069-7.07 2.93s-2.93 4.44-2.93 7.07v94h-70c-5.522 0-10 4.478-10 10v57h-70c-5.523 0-10 4.478-10 10v149h-185c-5.523 0-10 4.478-10 10s4.477 10 10 10h25v150c0 5.522 4.477 10 10 10h80c5.523 0 10-4.478 10-10v-43h70c5.523 0 10-4.478 10-10v-97h268.835l-7.534 11.901c-2.954 4.666-1.565 10.844 3.101 13.798 1.659 1.051 3.511 1.552 5.339 1.552 3.313 0 6.556-1.646 8.459-4.652l17.25-27.25c2.067-3.266 2.067-7.432-.001-10.698zm-395.449 155.349h-60v-140h60zm80-53h-60v-87h60zm20-246h60v139h-60zm80-67h60v206h-60z"/></g></g></svg>