<svg id="Layer_1" enable-background="new 0 0 512.001 512.001" height="512" viewBox="0 0 512.001 512.001" width="512" xmlns="http://www.w3.org/2000/svg"><g><path d="m429.191 258.74c-27.63 127.7-87.96 216.26-157.94 216.26-54.38 0-102.93-53.47-134.83-137.22 71.59-41.45 174.92-70.48 292.77-79.04z" fill="#a0c8ff"/><g><path d="m510.464 469.672-17-27c-2.943-4.674-9.117-6.077-13.791-3.134s-6.077 9.117-3.134 13.791l7.349 11.671h-153.074c5.064-3.526 10.036-7.497 14.887-11.9 16.34-14.87 31.46-34.5 44.94-58.35 13.2-23.36 24.79-50.68 34.43-81.2 4.594-14.578 8.677-29.733 12.249-45.351 21.25-1.371 42.844-2.083 64.681-2.083 5.523 0 10-4.477 10-10s-4.477-10-10-10c-20.35 0-40.504.603-60.38 1.776 8.966-45.905 13.624-95.319 13.63-145.892 0-5.51-4.49-10-10-10s-9.99 4.48-10 9.99v.01c.016 51.599-4.888 101.522-14.222 147.319-96.024 7.675-184.568 28.969-255.041 61.845-8.421 3.928-16.496 7.983-24.22 12.154-18.066-51.258-29.536-111.831-33.206-175.658-.32-5.48-5.07-9.73-10.56-9.41-2.67.15-5.12 1.34-6.89 3.33-1.78 1.99-2.67 4.56-2.52 7.23 2.66 45.92 9.14 89.86 19.25 130.59 4.718 19.015 10.169 37.049 16.295 54.022-34.054 20.69-60.016 43.892-77.135 68.73v-374.039l11.672 7.349c1.655 1.042 3.498 1.539 5.319 1.539 3.321 0 6.571-1.655 8.472-4.673 2.942-4.674 1.54-10.848-3.134-13.791l-27-17c-3.256-2.05-7.4-2.05-10.656 0l-27 17c-4.674 2.943-6.077 9.117-3.134 13.791s9.118 6.077 13.791 3.134l11.672-7.349v43.887h-11.75c-5.523 0-10 4.477-10 10s4.477 10 10 10h11.75v60h-11.75c-5.523 0-10 4.477-10 10s4.477 10 10 10h11.75v60h-11.75c-5.523 0-10 4.477-10 10s4.477 10 10 10h11.75v60h-11.75c-5.523 0-10 4.477-10 10s4.477 10 10 10h11.75v60h-11.75c-5.523 0-10 4.477-10 10s4.477 10 10 10h11.75v53h-17c-5.523 0-10 4.477-10 10s4.477 10 10 10h17v17c0 5.523 4.477 10 10 10s10-4.477 10-10v-17h53v11.75c0 5.523 4.477 10 10 10s10-4.477 10-10v-11.75h60v11.75c0 5.523 4.477 10 10 10s10-4.477 10-10v-11.75h60v11.75c0 5.523 4.477 10 10 10s10-4.477 10-10v-11.75h60v11.75c0 5.523 4.477 10 10 10s10-4.477 10-10v-11.75h60v11.75c0 5.523 4.477 10 10 10s10-4.477 10-10v-11.75h43.887l-7.349 11.672c-2.942 4.674-1.54 10.848 3.134 13.791 1.655 1.042 3.498 1.539 5.319 1.539 3.321 0 6.571-1.655 8.472-4.673l17-27c2.047-3.257 2.047-7.401-.003-10.657zm-336.021-140.384c66.879-31.198 150.778-51.646 242.053-59.519-8.024 33.481-18.51 64.422-31.275 91.751-15.18 32.6-33.5 59.14-52.96 76.76-19.59 17.71-40.12 26.7-61.01 26.72-19.28-.02-38.31-7.7-56.55-22.84-24.85-20.611-47.953-55.795-65.805-99.951 8.096-4.443 16.612-8.753 25.547-12.921zm-127.442 117.665c5.219-17.235 15.267-34.114 30.065-50.436 14.259-15.726 32.464-30.486 54.387-44.126 4.76 11.561 9.855 22.563 15.287 32.939 16.22 30.92 34.78 55.21 55.17 72.2 3.219 2.686 6.497 5.162 9.812 7.47h-164.721z"/><path d="m97.251 113.25h.02c5.51-.01 9.99-4.5 9.98-10.01s-4.49-9.99-10-9.99h-.01c-2.68.01-5.19 1.05-7.07 2.94-1.89 1.89-2.92 4.41-2.92 7.08.01 5.5 4.49 9.98 10 9.98z"/></g></g></svg>