<svg id="Layer_1" enable-background="new 0 0 512.001 512.001" height="512" viewBox="0 0 512.001 512.001" width="512" xmlns="http://www.w3.org/2000/svg"><g><path d="m272.801 271.751c-189.3 0-182.8 166.006 0 166.006 86.819 0 157.2 7.5 157.2-166.006z" fill="#a0c8ff"/><path d="m430.001 271.751c0-173.506-70.381-166.006-157.2-166.006-182.8 0-189.3 166.006 0 166.006z" fill="#a0c8ff"/><circle cx="374.251" cy="271.751" fill="#b8ecbc" r="55.75"/><g><circle cx="400.067" cy="404.64" r="10"/><path d="m510.463 266.673-17-27c-2.941-4.673-9.116-6.078-13.79-3.134-4.674 2.942-6.077 9.116-3.134 13.79l7.349 11.672h-43.971c-1.065-68.034-13.471-111.714-38.821-136.976-29.717-29.613-72.586-29.454-117.96-29.305-3.416.013-6.862.024-10.335.024-44.766 0-82.786 9.704-109.948 28.063-25.167 17.009-39.6 41.075-39.6 66.027 0 25.052 13.875 48.037 39.069 64.722 4.04 2.675 8.348 5.152 12.886 7.444h-128.207v-202.886l11.672 7.349c1.655 1.043 3.498 1.54 5.319 1.539 3.321 0 6.571-1.654 8.472-4.673 2.942-4.674 1.54-10.848-3.134-13.79l-27-17c-3.256-2.051-7.4-2.051-10.656 0l-27 17c-4.674 2.942-6.077 9.116-3.134 13.79s9.118 6.075 13.791 3.134l11.672-7.349v42.887h-11.75c-5.523 0-10 4.478-10 10s4.477 10 10 10h11.75v60h-11.75c-5.523 0-10 4.478-10 10s4.477 10 10 10h11.75v60h-17c-5.523 0-10 4.478-10 10s4.477 10 10 10h17v60h-11.75c-5.523 0-10 4.478-10 10s4.477 10 10 10h11.75v60h-11.75c-5.523 0-10 4.478-10 10s4.477 10 10 10h11.75v29c0 5.522 4.477 10 10 10s10-4.478 10-10v-189h58.6v11.75c0 5.522 4.477 10 10 10s10-4.478 10-10v-11.75h48.617c-4.176 2.153-8.15 4.464-11.897 6.939-12.55 8.311-22.32 18.21-29.04 29.431-6.57 10.96-10.04 23.16-10.03 35.29 0 6.159.87 12.35 2.6 18.39 1.72 6.01 4.3 11.9 7.65 17.52 3.37 5.65 7.55 11.061 12.43 16.08 4.94 5.091 10.64 9.82 16.92 14.04 13.13 8.86 28.83 15.75 46.68 20.48 18.97 5.03 40.25 7.58 63.27 7.59 3.45 0 17.04.04 20.39.04 27.23-.04 51.591-.7 73.851-8.39 5.21-1.811 7.979-7.521 6.16-12.73-1.4-4.02-5.19-6.72-9.44-6.72-1.12 0-2.22.189-3.29.56-17.22 6.05-38.729 7.28-65.74 7.28-3.779.01-18.41-.04-21.93-.04h-.09c-51.48 0-82.07-13.4-98.66-24.64-19.84-13.49-30.78-31.051-30.8-49.46.01-8.62 2.43-17.04 7.19-25.011 7.94-13.279 22.09-24.569 40.91-32.64 19.178-8.224 42.39-12.922 69.119-14.01h2.331v11.75c0 5.522 4.478 10 10 10s10-4.478 10-10v-11.75h26.504c4.938 31.403 32.178 55.5 64.946 55.5 16.599 0 31.772-6.19 43.354-16.374-1.666 15.444-4.191 29.031-7.573 40.624-.75 2.56-.45 5.27.829 7.609 1.29 2.341 3.41 4.04 5.971 4.79.91.271 1.859.4 2.8.4 4.42 0 8.36-2.96 9.6-7.2 6.6-22.688 10.099-50.702 10.675-85.35h43.982l-7.349 11.672c-2.943 4.674-1.54 10.848 3.134 13.79 1.655 1.043 3.497 1.539 5.318 1.539 3.322 0 6.571-1.654 8.472-4.673l17-27c2.047-3.254 2.047-7.399-.004-10.654zm-201.235-4.672s-35.672 0-36.427 0c-41.472 0-75.856-8.504-99.437-24.119-19.417-12.859-30.111-29.923-30.111-48.047 0-36.817 44.499-74.09 129.548-74.09 3.496 0 6.965-.012 10.404-.024 42.902-.147 79.94-.278 103.772 23.472 16.192 16.135 26.313 43.548 30.618 83.17-11.58-10.177-26.751-16.361-43.344-16.361-32.942-.001-60.297 24.352-65.023 55.999zm65.023-36c21.88 0 40.212 15.443 44.694 36h-89.387c4.481-20.557 22.813-36 44.693-36zm0 91.5c-21.702 0-39.91-15.194-44.578-35.5h89.156c-4.668 20.305-22.876 35.5-44.578 35.5z"/></g></g></svg>