<svg id="Layer_1" enable-background="new 0 0 512.001 512.001" height="512" viewBox="0 0 512.001 512.001" width="512" xmlns="http://www.w3.org/2000/svg"><g><path d="m37.001 255.986s112-135.986 188.321-159.686l31.22-9.358c39.394-11.808 79.881-2.342 116.204 27.168l103.255 83.888v106.571l-103.255-39.464c-36.323-13.882-76.809-18.335-116.204-12.781l-31.22 4.402c-33.015 4.655-64.091 16.176-90.359 33.498l-97.962 64.598z" fill="#ff7b79"/><g><path d="m510.464 469.672-17-27c-2.943-4.674-9.118-6.077-13.791-3.134-4.674 2.942-6.077 9.116-3.134 13.79l7.349 11.672h-436.887v-104.797l93.47-61.633c24.96-16.46 54.79-27.51 86.25-31.939l31.22-4.4c10.48-1.479 21.18-2.229 31.81-2.229 22.9 0 45.39 3.39 66.83 10.08.97.3 1.98.46 2.99.46 4.39 0 8.23-2.83 9.54-7.03.79-2.55.55-5.25-.69-7.62-1.24-2.36-3.33-4.11-5.88-4.899-23.37-7.29-47.86-10.99-72.79-10.99-11.57 0-23.22.81-34.61 2.42l-31.21 4.399c-17.15 2.421-33.9 6.641-49.79 12.53-15.94 5.9-30.97 13.48-44.68 22.53l-82.46 54.37v-26.584l94.163-74.428c24.877-19.664 54.555-32.852 85.825-38.137l31.22-5.276c37.567-6.349 75.734-1.319 110.373 14.551l97.42 44.63v39.035l-18.65-7.13c-1.15-.44-2.35-.66-3.57-.66-4.12 0-7.87 2.59-9.34 6.43-1.97 5.15.62 10.95 5.77 12.92l32.22 12.311c3.03 1.159 6.57.739 9.24-1.101 2.71-1.87 4.33-4.95 4.33-8.24v-106.573c0-2.98-1.38-5.88-3.69-7.76l-103.26-83.891c-13.75-11.189-28.32-19.8-43.29-25.58-15.07-5.819-30.53-8.77-45.94-8.77h-.1c-12.06 0-24.19 1.8-36.05 5.359l-31.22 9.36-.1.03c-18.76 5.87-39.92 17.819-64.69 36.53-26.84 20.34-56.61 47.779-88.47 81.569-8.553 9.071-16.053 17.335-22.19 24.244v-200.977l11.672 7.349c1.655 1.043 3.498 1.54 5.319 1.539 3.321 0 6.571-1.654 8.472-4.673 2.942-4.674 1.54-10.848-3.134-13.79l-27-17c-3.256-2.051-7.4-2.051-10.656 0l-27 17c-4.674 2.942-6.077 9.116-3.134 13.79s9.118 6.076 13.791 3.134l11.672-7.349v43.886h-11.75c-5.523 0-10 4.478-10 10s4.477 10 10 10h11.75v60h-11.75c-5.523 0-10 4.478-10 10s4.477 10 10 10h11.75v60h-11.75c-5.523 0-10 4.478-10 10s4.477 10 10 10h11.75v60h-11.75c-5.523 0-10 4.478-10 10s4.477 10 10 10h11.75v60h-11.75c-5.523 0-10 4.478-10 10s4.477 10 10 10h11.75v53h-17c-5.523 0-10 4.478-10 10s4.477 10 10 10h17v17c0 5.522 4.477 10 10 10s10-4.478 10-10v-17h53v11.75c0 5.522 4.477 10 10 10s10-4.478 10-10v-11.75h60v11.75c0 5.522 4.477 10 10 10s10-4.478 10-10v-11.75h60v11.75c0 5.522 4.477 10 10 10s10-4.478 10-10v-11.75h60v11.75c0 5.522 4.477 10 10 10s10-4.478 10-10v-11.75h60v11.75c0 5.522 4.477 10 10 10s10-4.478 10-10v-11.75h43.887l-7.349 11.672c-2.942 4.674-1.54 10.848 3.134 13.79 1.655 1.043 3.498 1.539 5.319 1.539 3.321 0 6.571-1.654 8.472-4.673l17-27c2.047-3.256 2.047-7.4-.003-10.656zm-393.843-284.392c20.38-19.62 39.55-36.091 57-48.961 20.59-15.239 39.46-25.76 54.57-30.439l31.22-9.36c10.02-3 20.22-4.52 30.34-4.52 26.47.02 52.27 10.069 76.69 29.87l99.56 80.89v26.245l-89.09-40.813c-38.299-17.545-80.497-23.109-122.036-16.088l-31.22 5.276c-34.574 5.844-67.388 20.425-94.894 42.168l-81.761 64.625v-24.553c7.681-9.12 35.351-41.37 69.621-74.34z"/><circle cx="401.741" cy="276.19" r="10"/></g></g></svg>