<svg id="Layer_1" enable-background="new 0 0 512 512" height="512" viewBox="0 0 512 512" width="512" xmlns="http://www.w3.org/2000/svg"><g><circle cx="160" cy="256" fill="#ffda8f" r="150"/><circle cx="352" cy="256" fill="#a0c8ff" r="150"/><ellipse cx="256" cy="256" fill="#b8ecbc" rx="54" ry="115.25"/><g><circle cx="460.058" cy="360.029" r="10"/><path d="m499.42 193.72c-4.01-9.479-8.97-18.62-14.75-27.18-5.72-8.471-12.3-16.44-19.53-23.681-7.24-7.239-15.21-13.81-23.68-19.529-8.56-5.78-17.7-10.74-27.18-14.761-19.73-8.34-40.68-12.569-62.28-12.569s-42.56 4.229-62.28 12.569c-9.48 4.021-18.62 8.98-27.18 14.761-2.236 1.51-4.434 3.083-6.596 4.708-26.75-20.107-59.979-32.038-95.944-32.038-88.224 0-160 71.775-160 160s71.776 160 160 160c35.965 0 69.194-11.931 95.944-32.038 2.162 1.625 4.36 3.198 6.596 4.708 8.56 5.78 17.7 10.74 27.18 14.75 19.72 8.35 40.68 12.58 62.28 12.58l.02-.05v.05c13.74 0 27.39-1.75 40.58-5.2 12.8-3.35 25.17-8.3 36.76-14.71 4.82-2.67 6.57-8.771 3.91-13.59-1.77-3.19-5.12-5.16-8.76-5.16-1.68 0-3.35.43-4.83 1.24 0 0 0 .01-.01.01-20.58 11.389-43.98 17.41-67.67 17.41-29.21 0-57.064-8.897-80.47-25.398 29.878-29.085 48.47-69.71 48.47-114.602 0-44.893-18.593-85.519-48.473-114.604 23.407-16.505 51.262-25.396 80.473-25.396 37.38 0 72.54 14.56 98.99 41 26.44 26.46 41 61.62 41.01 99 0 22.16-5.02 43.34-14.93 62.97-1.2 2.39-1.4 5.1-.57 7.64.84 2.53 2.61 4.591 5 5.801 1.41.71 2.92 1.069 4.49 1.069 3.8 0 7.23-2.109 8.94-5.5 5.52-10.93 9.77-22.5 12.63-34.41 2.95-12.24 4.44-24.881 4.44-37.57 0-21.601-4.23-42.561-12.58-62.28zm-243.474-39.573c5.117 4.823 9.87 10.027 14.218 15.564l-54.564 54.564c5.83-25.268 18.616-48.469 37.4-67.275.969-.969 1.954-1.917 2.946-2.853zm35.123 52.658-76.432 76.432c-1.733-8.827-2.625-17.886-2.636-27.079l69.549-69.549c3.687 6.431 6.876 13.181 9.519 20.196zm8.931 49.195c0 .635-.017 1.267-.025 1.899l-68.839 68.84c-4.032-6.865-7.456-14.043-10.244-21.471l76.448-76.448c1.738 8.796 2.66 17.882 2.66 27.18zm-140 140c-77.196 0-140-62.804-140-140s62.804-140 140-140c29.872 0 57.585 9.41 80.341 25.413-.494.482-.994.958-1.481 1.446-7.24 7.24-13.81 15.21-19.53 23.681-5.78 8.56-10.74 17.7-14.75 27.18-8.35 19.719-12.58 40.679-12.58 62.28 0 21.6 4.23 42.56 12.58 62.279 4.01 9.48 8.97 18.62 14.75 27.181 5.72 8.47 12.29 16.439 19.53 23.68.488.488.987.965 1.482 1.447-22.757 16.003-50.47 25.413-80.342 25.413zm95.947-38.147c-.993-.937-1.977-1.884-2.947-2.853-3.673-3.677-7.108-7.528-10.316-11.524l53.011-53.011c-6.651 26.165-20.682 49.416-39.748 67.388z"/></g></g></svg>