<svg id="Layer_1" enable-background="new 0 0 512.001 512.001" height="512" viewBox="0 0 512.001 512.001" width="512" xmlns="http://www.w3.org/2000/svg"><g><g fill="#ffda8f"><path d="m90.001 274.997h40v200h-40z"/><path d="m170.001 342h40v132.997h-40z"/><path d="m250.001 372h40v102.997h-40z"/><path d="m330.001 286.001h40v188.996h-40z"/><path d="m410.001 152h40v322.997h-40z"/></g><circle cx="110.001" cy="176.997" fill="#a0c8ff" r="20"/><circle cx="190.001" cy="244" fill="#a0c8ff" r="20"/><circle cx="350.001" cy="188" fill="#a0c8ff" r="20"/><circle cx="430.001" cy="30" fill="#a0c8ff" r="20"/><circle cx="270.001" cy="274" fill="#a0c8ff" r="20"/><g><circle cx="450.001" cy="290" r="10"/><path d="m510.463 469.672-17-27c-2.941-4.673-9.116-6.077-13.79-3.134-4.674 2.942-6.077 9.116-3.134 13.79l7.349 11.672h-23.887v-130c0-5.521-4.49-10-10-10s-10 4.479-10 10v130h-20v-303h20v83c0 5.51 4.49 10 10 10s10-4.49 10-10c0-.01 0-.01 0-.021v-92.979c0-2.63-1.07-5.21-2.931-7.07-1.859-1.86-4.439-2.93-7.069-2.93h-40c-2.63 0-5.21 1.069-7.07 2.93s-2.93 4.44-2.93 7.07v313h-20v-178.998c0-5.522-4.478-10-10-10h-40c-5.522 0-10 4.478-10 10v178.998h-20v-93c0-5.522-4.478-10-10-10h-40c-5.522 0-10 4.478-10 10v93h-20v-123c0-5.522-4.478-10-10-10h-40c-5.522 0-10 4.478-10 10v123h-20v-190.003c0-5.522-4.478-10-10-10h-40c-5.522 0-10 4.478-10 10v190.003h-33v-436.887l11.672 7.349c1.655 1.043 3.497 1.54 5.318 1.539 3.322 0 6.571-1.654 8.472-4.673 2.943-4.674 1.54-10.848-3.134-13.79l-27-17c-3.256-2.051-7.4-2.051-10.656 0l-27 17c-4.674 2.942-6.077 9.116-3.134 13.79 2.941 4.672 9.116 6.077 13.79 3.134l11.672-7.349v43.887h-10.75c-5.522 0-10 4.478-10 10s4.478 10 10 10h10.75v60h-10.75c-5.522 0-10 4.478-10 10s4.478 10 10 10h10.75v60h-10.75c-5.522 0-10 4.478-10 10s4.478 10 10 10h10.75v60h-10.75c-5.522 0-10 4.478-10 10s4.478 10 10 10h10.75v60h-10.75c-5.522 0-10 4.478-10 10s4.478 10 10 10h10.75v53h-17c-5.522 0-10 4.478-10 10s4.478 10 10 10h17v17c0 5.522 4.478 10 10 10s10-4.478 10-10v-17h53v11.75c0 5.522 4.478 10 10 10s10-4.478 10-10v-11.75h60v11.75c0 5.522 4.478 10 10 10s10-4.478 10-10v-11.75h60v11.75c0 5.522 4.478 10 10 10s10-4.478 10-10v-11.75h60v11.75c0 5.522 4.478 10 10 10s10-4.478 10-10v-11.75h50 10v11.75c0 5.522 4.478 10 10 10s10-4.478 10-10v-11.75h10 33.887l-7.349 11.672c-2.943 4.674-1.54 10.848 3.134 13.79 1.655 1.043 3.497 1.539 5.318 1.539 3.322 0 6.571-1.654 8.472-4.673l17-27c2.051-3.256 2.051-7.4 0-10.656zm-170.462-173.67h20v168.995h-20zm-80 85.998h20v82.997h-20zm-80-30h20v112.997h-20zm-80-67.003h20v180h-20z"/><path d="m110.001 206.997c5.566 0 10.78-1.529 15.253-4.182l36.645 30.692c-1.224 3.268-1.898 6.803-1.898 10.493 0 16.542 13.458 30 30 30 9.202 0 17.446-4.168 22.954-10.712l27.061 10.148c-.004.188-.014.375-.014.564 0 16.542 13.458 30 30 30s30-13.458 30-30c0-5.01-1.241-9.733-3.421-13.889l41.484-44.595c3.661 1.594 7.696 2.484 11.938 2.484 16.542 0 30-13.458 30-30 0-8.019-3.169-15.307-8.312-20.695l54.459-107.561c1.262.163 2.545.256 3.851.256 16.542 0 30-13.458 30-30s-13.458-30-30-30-30 13.458-30 30c0 8.019 3.169 15.307 8.312 20.695l-54.461 107.561c-1.262-.163-2.545-.256-3.851-.256-16.542 0-30 13.458-30 30 0 5.01 1.241 9.733 3.422 13.889l-41.483 44.595c-3.661-1.595-7.697-2.484-11.938-2.484-9.202 0-17.446 4.168-22.954 10.712l-27.061-10.148c.004-.188.014-.375.014-.564 0-16.542-13.458-30-30-30-5.566 0-10.78 1.529-15.252 4.181l-36.646-30.691c1.224-3.268 1.898-6.803 1.898-10.493 0-16.542-13.458-30-30-30s-30 13.458-30 30 13.458 30 30 30zm320-186.997c5.514 0 10 4.486 10 10s-4.486 10-10 10-10-4.486-10-10 4.487-10 10-10zm-80 158c5.514 0 10 4.486 10 10s-4.486 10-10 10-10-4.486-10-10 4.487-10 10-10zm-80 86c5.514 0 10 4.486 10 10s-4.486 10-10 10-10-4.486-10-10 4.487-10 10-10zm-80-30c5.514 0 10 4.486 10 10s-4.486 10-10 10-10-4.486-10-10 4.487-10 10-10zm-80-67.003c5.514 0 10 4.486 10 10s-4.486 10-10 10-10-4.486-10-10 4.487-10 10-10z"/></g></g></svg>