<svg id="Layer_1" enable-background="new 0 0 512 512" height="512" viewBox="0 0 512 512" width="512" xmlns="http://www.w3.org/2000/svg"><g><path d="m9.995 468.973 246.005.014 246.005.015-122.99-213.002-122.99-213.001-123.015 212.987z" fill="#fff"/><g fill="#ff7b79"><ellipse cx="120.456" cy="405.223" rx="20" ry="19.996"/><ellipse cx="398.4" cy="406.617" rx="20" ry="19.996"/><ellipse cx="260.819" cy="260.334" rx="20" ry="19.996"/></g><g><circle cx="380.519" cy="258.6" r="10"/><path d="m510.665 464.003-98.992-171.441c-1.78-3.079-5.1-4.999-8.67-4.999-1.75 0-3.47.46-4.99 1.34-4.78 2.76-6.42 8.888-3.66 13.657l79.619 137.891-46.2-27.819c1.426-6.94.424-14.405-3.389-21.009-4.006-6.938-10.475-11.902-18.216-13.975-1.612-.432-3.239-.72-4.868-.881l-132.892-230.152c-.147-.255-.32-.49-.488-.728l-1.183-64.335 82.616 143.076c1.78 3.09 5.11 5.009 8.671 5.009 1.75 0 3.47-.47 4.99-1.34 2.32-1.34 3.97-3.499 4.66-6.079.7-2.579.34-5.269-.99-7.578l-101.993-176.641c-1.78-3.079-5.1-4.999-8.67-4.999-3.56 0-6.881 1.919-8.651 4.999l-246.034 425.975c-1.78 3.079-1.78 6.918 0 9.998 1.78 3.079 5.1 4.999 8.66 4.999l492.01.03c3.56 0 6.88-1.919 8.66-4.999s1.78-6.919 0-9.999zm-141.816-62.54-218.633-.013c-.071-.569-.164-1.137-.269-1.703l42.802-24.703 133.844.008 42.421 25.543c-.058.289-.114.578-.165.868zm-253.393-4.899c1.571-.907 3.288-1.338 4.983-1.338 3.459 0 6.827 1.794 8.677 4.997 2.757 4.775 1.114 10.901-3.661 13.658-2.313 1.336-5.009 1.69-7.589.998-2.58-.691-4.736-2.346-6.071-4.659s-1.69-5.007-.999-7.587c.692-2.578 2.347-4.733 4.66-6.069zm131.342-109.74c1.21.638 2.459 1.191 3.74 1.657l.548 29.807-33.691 19.444zm14.287 48.781 32.299 19.448-65.99-.004zm-15.265-101.247c-12.938 7.467-18.207 23.18-13.016 36.706l-50.053 86.662-42.803 24.703c-.438-.374-.884-.738-1.341-1.085l110.131-190.679.77 41.891c-1.257.514-2.49 1.111-3.688 1.802zm25.27 83.929-.544-29.583c.823-.282 1.636-.613 2.443-.971l28.058 48.592zm-.612-55.364c-.692 2.579-2.346 4.735-4.66 6.07-4.777 2.756-10.904 1.114-13.66-3.659-2.757-4.775-1.114-10.901 3.661-13.658 1.541-.889 3.251-1.343 4.983-1.343.869 0 1.744.114 2.606.345 2.58.691 4.736 2.346 6.071 4.659s1.691 5.006.999 7.586zm-22.452-111.012-129.009 223.365c-4.63.215-9.276 1.499-13.56 3.971-6.94 4.005-11.905 10.473-13.979 18.211-1.179 4.397-1.341 8.904-.53 13.25l-53.634 30.954 209.373-362.51zm-147.078 276.115c3.359 2.876 7.344 4.99 11.742 6.168 2.586.693 5.208 1.035 7.815 1.035 5.197 0 10.328-1.363 14.95-4.03 4.283-2.472 7.719-5.853 10.221-9.754l226.659.014c.029.051.055.103.084.154 5.55 9.613 15.656 14.992 26.033 14.992 5.085 0 10.236-1.292 14.948-4.011 1.456-.84 2.81-1.79 4.068-2.824l48.551 29.234-418.699-.028zm302.452-12.75c-4.777 2.755-10.905 1.114-13.661-3.66-1.335-2.312-1.69-5.007-.999-7.587.691-2.579 2.346-4.735 4.66-6.07 1.541-.889 3.251-1.343 4.983-1.343.869 0 1.743.114 2.605.345 2.58.692 4.736 2.346 6.071 4.659 2.759 4.773 1.116 10.899-3.659 13.656zm-22.16-33.254c-.658.457-1.294.939-1.909 1.442l-42.883-25.821-48.631-84.222c.816-1.691 1.483-3.469 1.979-5.322 2.075-7.738 1.011-15.822-2.996-22.759-3.847-6.664-9.97-11.498-17.305-13.708l-.819-44.554z"/></g></g></svg>