<svg id="Layer_1" enable-background="new 0 0 512.001 512.001" height="512" viewBox="0 0 512.001 512.001" width="512" xmlns="http://www.w3.org/2000/svg"><g><path d="m272.801 272.001v.06c0-.08-35.19 60.98-78.6 60.98s-78.6-60.98-78.6-60.98v-.06z" fill="#b8ecbc"/><path d="m272.801 272.061v.09c0 99.18-35.19 179.59-78.6 179.59s-78.6-80.41-78.6-179.59v-.09s35.19 60.98 78.6 60.98 78.6-61.06 78.6-60.98z" fill="#a0c8ff"/><path d="m430.001 271.901v.08s-35.19-60.98-78.6-60.98-78.6 61.06-78.6 60.98v-.08c0-99.19 35.19-179.6 78.6-179.6s78.6 80.41 78.6 179.6z" fill="#a0c8ff"/><path d="m430.001 271.981v.02h-157.2v-.02c0 .08 35.19-60.98 78.6-60.98s78.6 60.98 78.6 60.98z" fill="#b8ecbc"/><g><path d="m510.464 266.672-17-27c-2.943-4.675-9.118-6.077-13.791-3.134-4.674 2.943-6.077 9.117-3.134 13.791l7.349 11.672h-44.015c-.349-15.043-1.483-29.874-3.412-44.21-.66-4.94-4.92-8.67-9.9-8.67-.44 0-.89.03-1.34.09-2.65.36-5 1.72-6.62 3.84-1.62 2.13-2.32 4.75-1.96 7.4.844 6.283 1.529 12.667 2.056 19.126-1.407-1.623-2.875-3.263-4.406-4.906-9.01-9.65-17.88-17.07-27.1-22.69-11.98-7.28-24.02-10.97-35.79-10.98-11.77.01-23.8 3.7-35.77 10.99-7.13 4.35-14.24 9.94-21.15 16.62-3.506 3.39-6.932 7.024-10.358 10.979 2.823-34.177 10.081-66.111 20.858-90.679 6.59-15.1 14.47-27.31 22.77-35.3 7.92-7.6 15.65-11.3 23.65-11.31 6.94.02 13.67 2.81 20.57 8.54 7.24 6.02 14.34 15.37 20.52 27.03 1.74 3.27 5.13 5.3 8.84 5.3 1.62 0 3.24-.4 4.69-1.17 2.36-1.25 4.08-3.35 4.87-5.9.78-2.56.52-5.26-.74-7.62-7.5-14.09-16.03-25.19-25.36-32.99-10.28-8.63-21.8-13.19-33.33-13.19h-.1c-13.14 0-26.11 5.85-37.5 16.92-7.83 7.61-14.99 17.5-21.3 29.4-6.08 11.47-11.44 24.93-15.93 40.03-8.23 27.867-12.916 59.958-13.699 93.35h-137.331v-39.71c0-5.51-4.49-10-10-10s-9.99 4.48-10 9.99v.01 39.71h-58.6v-202.887l11.672 7.349c1.655 1.042 3.498 1.539 5.319 1.539 3.321 0 6.571-1.655 8.472-4.673 2.942-4.674 1.54-10.848-3.134-13.791l-27-17c-3.256-2.05-7.4-2.05-10.656 0l-27 17c-4.674 2.943-6.077 9.117-3.134 13.791s9.118 6.077 13.791 3.134l11.672-7.349v42.887h-11.75c-5.523 0-10 4.477-10 10s4.477 10 10 10h11.75v60h-11.75c-5.523 0-10 4.477-10 10s4.477 10 10 10h11.75v60h-17c-5.523 0-10 4.477-10 10s4.477 10 10 10h17v60h-11.75c-5.523 0-10 4.477-10 10s4.477 10 10 10h11.75v60h-11.75c-5.523 0-10 4.477-10 10s4.477 10 10 10h11.75v29c0 5.523 4.477 10 10 10s10-4.477 10-10v-189h58.72c1.068 45.62 9.407 88.323 23.74 121.15 7.75 17.67 16.9 31.69 27.2 41.67 11.39 11.07 24.36 16.92 37.5 16.92h.08c13.14 0 26.11-5.85 37.5-16.92 7.82-7.61 14.99-17.5 21.3-29.4 6.08-11.47 11.44-24.93 15.93-40.03 8.233-27.878 12.92-59.983 13.7-93.39h58.73v11.75c0 5.523 4.477 10 10 10s10-4.477 10-10v-11.75h58.6v39.75c0 5.51 4.49 10 10 10s10-4.49 10-10v-39.75h43.887l-7.349 11.672c-2.942 4.674-1.54 10.848 3.134 13.791 1.655 1.042 3.498 1.539 5.319 1.539 3.321 0 6.571-1.655 8.472-4.673l17-27c2.048-3.258 2.048-7.401-.002-10.658zm-316.263 37.079c5.523 0 10-4.477 10-10v-11.75h49.739c-5.344 7.054-13.453 16.724-23.05 24.77-6.08 5.11-12.14 9.08-18 11.79-6.43 2.97-12.72 4.48-18.69 4.48h-.04c-8.02 0-16.55-2.71-25.36-8.07-14.05-8.49-26.03-22.33-31.93-29.82-.853-1.079-1.658-2.127-2.432-3.15h49.762v11.75c.001 5.523 4.479 10 10.001 10zm46.42 91.379c-6.6 15.1-14.47 27.31-22.78 35.31-7.91 7.59-15.64 11.29-23.64 11.3-8-.01-15.73-3.71-23.65-11.3-12.66-12.13-24-33.7-31.94-60.72-5.862-19.808-9.82-41.958-11.717-65.263 1.411 1.629 2.881 3.274 4.417 4.923 9.02 9.64 17.88 17.06 27.1 22.68 11.98 7.28 24.02 10.97 35.79 10.98 11.76-.01 23.8-3.7 35.77-10.98 7.13-4.35 14.24-9.95 21.15-16.63 3.504-3.388 6.929-7.017 10.354-10.969-2.825 34.177-10.078 66.103-20.854 90.669zm51.074-133.129c5.344-7.045 13.439-16.693 23.016-24.73 6.08-5.11 12.14-9.08 18-11.79 6.43-2.97 12.72-4.48 18.69-4.48h.04c8.02 0 16.55 2.72 25.36 8.07 14.04 8.5 26.03 22.33 31.93 29.82.844 1.066 1.639 2.1 2.404 3.11z"/><circle cx="417.6" cy="175.041" r="10"/></g></g></svg>