<svg id="Layer_1" enable-background="new 0 0 512.001 512.001" height="512" viewBox="0 0 512.001 512.001" width="512" xmlns="http://www.w3.org/2000/svg"><g><path d="m37.001 108 70.621 31.879 82.379-83.879 80 18 80-47 80 30.5v203.75l-84 88.125-309 125.619z" fill="#ff7b79"/><path d="m37.001 310.25 66.375-58.625 86.625 12.592 80-114.217 80 18 80-16.75v110l-84 88.125-309 125.625z" fill="#ffda8f"/><path d="m37.001 420.25 73-70.25 80 14.217 80-71.217 77.081 41.173 82.919-72.923v213.5l-393 .25z" fill="#b8ecbc"/><g><path d="m510.463 469.672-17-27c-2.941-4.673-9.116-6.078-13.79-3.134-4.674 2.943-6.077 9.117-3.134 13.791l7.349 11.671h-43.887v-41.23c0-5.52-4.49-10-10-10s-9.99 4.47-10 9.98v.02 40.99l-373 .23v-40.48l66.26-63.77 74.99 13.32c3 .53 6.12-.35 8.4-2.37l74.79-66.58 70.931 37.88c1.439.78 3.069 1.18 4.71 1.18 2.43 0 4.779-.88 6.609-2.49l66.311-58.32v50.4c0 5.52 4.479 10 10 10 5.51 0 10-4.48 10-10v-276.26c0-4.148-2.562-7.866-6.438-9.344l-80-30.5c-2.837-1.083-6.011-.817-8.628.722l-76.594 44.999-76.145-17.132c-3.377-.76-6.905.279-9.33 2.749l-77.49 78.9-58.375-26.351v-73.43l11.672 7.349c1.655 1.042 3.498 1.539 5.319 1.539 3.321 0 6.571-1.655 8.472-4.673 2.942-4.674 1.54-10.848-3.134-13.791l-27-17c-3.256-2.05-7.4-2.05-10.656 0l-27 17c-4.674 2.943-6.077 9.117-3.134 13.791s9.118 6.077 13.791 3.134l11.672-7.349v43.887h-11.75c-5.523 0-10 4.477-10 10s4.477 10 10 10h11.75v60h-11.75c-5.523 0-10 4.477-10 10s4.477 10 10 10h11.75v60h-11.75c-5.523 0-10 4.477-10 10s4.477 10 10 10h11.75v60h-11.75c-5.523 0-10 4.477-10 10s4.477 10 10 10h11.75v60h-11.75c-5.523 0-10 4.477-10 10s4.477 10 10 10h11.75v8.25 44.75h-17c-5.523 0-10 4.477-10 10s4.477 10 10 10h17v17c0 5.523 4.477 10 10 10s10-4.477 10-10v-17h53v9.75c0 5.523 4.477 10 10 10s10-4.477 10-10v-9.75h60v9.75c0 5.523 4.477 10 10 10s10-4.477 10-10v-9.75h60v9.75c0 5.523 4.478 10 10 10s10-4.477 10-10v-9.75h60v9.75c0 5.523 4.478 10 10 10s10-4.477 10-10v-9.75h60v9.75c0 5.523 4.478 10 10 10s10-4.477 10-10v-9.75h43.887l-7.349 11.672c-2.943 4.674-1.54 10.848 3.134 13.791 1.655 1.042 3.497 1.539 5.318 1.539 3.322 0 6.571-1.655 8.472-4.673l17-27c2.048-3.257 2.048-7.401-.003-10.657zm-463.462-346.186 56.507 25.507c3.821 1.726 8.311.884 11.249-2.107l78.479-79.908 74.57 16.778c2.478.558 5.071.152 7.261-1.134l75.859-44.567 69.075 26.335v78.737l-69.924 14.64-77.881-17.523c-3.956-.89-8.059.697-10.386 4.019l-76.466 109.172-80.53-11.707c-2.91-.425-5.856.456-8.059 2.401l-49.755 43.945v-164.588zm0 191.274 59.522-52.572 82.04 11.926c3.736.542 7.463-1.066 9.629-4.159l76.154-108.727 73.46 16.528c1.396.314 2.844.325 4.244.032l67.951-14.227v93.169l-74.32 65.361-70.97-37.91c-1.45-.77-3.08-1.18-4.71-1.18-2.45 0-4.811.9-6.65 2.53l-76.38 67.99-75.22-13.37c-3.14-.55-6.38.43-8.68 2.64l-56.07 53.958v-81.989z"/><circle cx="430.001" cy="378.76" r="10"/></g></g></svg>